<svg width="71" height="70" viewBox="0 0 71 70" fill="none" xmlns="http://www.w3.org/2000/svg">
<path d="M53.4447 12.2793H17.7406C15.0019 12.2793 12.8718 14.5108 12.8718 17.148V52.8522C12.8718 55.5908 15.0019 57.7209 17.7406 57.7209H53.4447C56.0819 57.7209 58.3134 55.5908 58.3134 52.8522V17.148C58.3134 14.5108 56.0819 12.2793 53.4447 12.2793ZM37.5198 47.7805C37.5198 52.1421 34.984 54.1708 31.1296 54.1708C27.7824 54.1708 25.7537 52.4464 24.7394 50.3164L28.2895 48.1863C28.8981 49.4035 29.5067 50.4178 31.0282 50.4178C32.3468 50.4178 33.2597 49.8092 33.2597 47.6791V33.1743H37.5198V47.7805ZM47.6631 54.1708C43.7072 54.1708 41.1714 52.345 39.8528 49.8092L43.4029 47.882C44.3158 49.302 45.4315 50.4178 47.5616 50.4178C49.286 50.4178 50.5032 49.5049 50.5032 48.2877C50.5032 46.8677 49.286 46.3605 47.3588 45.4476L46.243 45.0419C43.2 43.7233 41.1714 42.1003 41.1714 38.5502C41.1714 35.4058 43.6058 32.9715 47.4602 32.9715C50.0974 32.9715 52.1261 33.8843 53.4447 36.3187L50.1989 38.4488C49.3874 37.2316 48.6774 36.623 47.3588 36.623C46.1416 36.623 45.3301 37.4345 45.3301 38.4488C45.3301 39.7674 46.1416 40.2746 47.9673 41.086L49.0831 41.5932C52.7347 43.1147 54.7633 44.7376 54.7633 48.2877C54.7633 52.1421 51.7203 54.1708 47.6631 54.1708Z" fill="#FCFCFC"/>
</svg>
