<svg width="71" height="70" viewBox="0 0 71 70" fill="none" xmlns="http://www.w3.org/2000/svg">
<path d="M41.8254 28.8275C45.2317 28.8275 47.9858 26.0681 47.9858 22.6551C47.9858 19.2422 45.2317 16.4102 41.8254 16.4102H29.4322C26.0259 16.4102 23.2719 19.2422 23.2719 22.6551C23.2719 26.0681 26.0259 28.8275 29.4322 28.8275C26.0259 28.8275 23.1994 31.5869 23.1994 34.9999C23.1994 38.4855 26.0259 41.2449 29.4322 41.2449C26.0259 41.2449 23.1994 44.0043 23.1994 47.4173C23.1994 50.8302 26.0259 53.5896 29.4322 53.5896C32.8386 53.5896 35.5926 50.8302 35.5926 47.4173V28.8275H41.8254ZM41.8254 28.8275C38.3466 28.8275 35.5926 31.5869 35.5926 34.9999C35.5926 38.4855 38.3466 41.2449 41.8254 41.2449C45.2317 41.2449 47.9858 38.4855 47.9858 34.9999C47.9858 31.5869 45.2317 28.8275 41.8254 28.8275Z" fill="#FCFCFC"/>
</svg>
