<svg width="71" height="70" viewBox="0 0 71 70" fill="none" xmlns="http://www.w3.org/2000/svg">
<path d="M34.1298 44.9165C34.1298 44.9974 34.1298 44.9974 34.1298 44.9165V44.9165ZM54.0707 37.8771C52.469 37.8771 50.8673 38.2816 49.4258 39.0099C49.0254 38.0389 48.4648 37.2298 48.3847 36.5825C48.3046 35.8543 48.2246 35.3688 48.3046 34.5597C48.4648 33.6696 48.9453 32.375 48.9453 32.2941C48.9453 32.2132 48.8652 31.8087 47.8241 31.8087C46.783 31.8087 45.9021 31.9705 45.742 32.2941C45.5818 32.7796 45.4216 33.2651 45.3415 33.8315C45.1814 34.7215 43.2593 38.1198 42.2182 39.8999C41.8979 39.1717 41.5776 38.6053 41.4975 38.1198C41.4174 37.3916 41.3373 36.9061 41.4174 36.097C41.4975 35.207 42.0581 33.9933 42.0581 33.8315C41.978 33.7506 41.8979 33.346 40.8568 33.346C39.8157 33.346 38.9348 33.5078 38.8547 33.8315C38.7746 34.0742 38.6145 34.7215 38.4543 35.3688C38.214 35.9352 35.7314 41.599 35.0908 43.0555C34.6903 43.7837 34.4501 44.431 34.2098 44.8355C34.2098 44.9165 34.2098 44.9165 34.1298 44.9165C34.2098 44.9165 34.2098 44.8355 34.2098 44.9165C34.0497 45.2401 33.8895 45.4019 33.8895 45.4019C33.8094 45.7256 33.6492 45.9683 33.5692 45.9683C33.4891 45.9683 33.409 45.2401 33.5692 44.3501C33.9696 42.3273 34.8505 39.3335 34.8505 39.2526C34.8505 39.1717 35.0107 38.6053 34.2899 38.3626C33.4891 38.1198 33.2488 38.5244 33.1687 38.5244L33.0887 38.6862C33.0887 38.6862 33.8895 35.2879 31.5671 35.2879C30.0455 35.2879 28.0434 36.9061 27.0023 38.3626C26.3616 38.6862 25.0002 39.4953 23.5586 40.3045C22.9981 40.5472 22.4375 40.8708 21.8769 41.1945L21.7968 41.1136C18.9138 37.958 13.6282 35.7734 13.8685 31.6468C13.9486 30.1095 14.4291 26.1448 24.0392 21.371C31.8874 17.4063 38.134 18.4581 39.2551 20.8855C40.7767 24.3647 35.8916 30.7568 27.723 31.6468C24.5997 31.9705 22.9981 30.7568 22.5976 30.3522C22.1171 29.8668 22.1171 29.8668 21.957 29.9477C21.6366 30.0286 21.7968 30.5141 21.957 30.7568C22.1972 31.4041 23.1582 32.5369 24.84 33.1033C26.3616 33.5887 30.0455 33.8315 34.4501 32.1323C39.3352 30.1904 43.1793 24.8502 42.0581 20.3191C40.9369 15.788 33.4891 14.2507 26.3616 16.8399C22.1171 18.2963 17.5523 20.7237 14.2689 23.7983C10.4249 27.5203 9.78418 30.6759 10.0244 32.0514C10.9854 36.8252 17.4723 39.8999 20.0349 42.2463C19.9549 42.3273 19.7947 42.3273 19.7146 42.4082C18.3532 43.0555 13.468 45.7256 12.1867 48.4766C10.8253 51.6322 12.427 53.8977 13.468 54.1405C16.8316 55.1114 20.2752 53.4122 22.1171 50.6612C23.9591 47.8293 23.7188 44.2692 22.8379 42.57C22.8379 42.57 22.8379 42.57 22.8379 42.4891C23.1582 42.3273 23.5586 42.0845 23.879 41.9227C24.5197 41.5181 25.1603 41.1945 25.7209 40.8708C25.4006 41.68 25.1603 42.7318 25.0802 44.2692C24.9201 46.0492 25.6408 48.3957 26.6018 49.2857C27.0023 49.6903 27.5629 49.6903 27.8031 49.6903C28.9243 49.6903 29.4048 48.8002 29.9654 47.6675C30.6861 46.292 31.2467 44.7546 31.2467 44.7546C31.2467 44.7546 30.526 48.9621 32.6082 48.9621C33.3289 48.9621 34.0497 47.9911 34.4501 47.5056C34.4501 47.5056 34.4501 47.5056 34.4501 47.4247C34.5302 47.2629 34.6103 47.182 34.6103 47.182C34.9306 46.6965 35.5713 45.4828 36.5323 43.46C37.8937 40.8708 39.095 37.7153 39.095 37.7153C39.2551 38.3626 39.4153 39.0908 39.5755 39.7381C39.8157 40.5472 40.2962 41.3563 40.6967 42.1654C40.3763 42.6509 40.2161 42.8936 40.2161 42.8936C39.9759 43.2173 39.6556 43.5409 39.4153 43.8646C38.3742 45.1592 37.1729 46.5347 37.0128 46.9393C36.7725 47.4247 36.8526 47.7484 37.253 48.072C37.4933 48.2339 37.9738 48.3148 38.4543 48.2339C39.4153 48.1529 40.056 47.9911 40.3763 47.8293C40.9369 47.5866 41.4975 47.3438 41.978 46.9393C43.0191 46.2111 43.5797 45.1592 43.4996 43.7028C43.4996 42.9746 43.2593 42.1654 42.939 41.4372C43.0191 41.3563 43.0992 41.1945 43.2593 41.0327C44.7809 38.6862 46.0623 36.097 46.0623 36.097C46.1424 36.8252 46.3025 37.5534 46.5428 38.2007C46.703 38.848 47.1034 39.5762 47.4237 40.3045C45.9822 41.5181 45.0212 42.9746 44.7009 43.8646C44.1403 45.5638 44.6208 46.3729 45.4216 46.5347C45.822 46.6156 46.3826 46.4538 46.8631 46.292C47.4237 46.0492 48.0644 45.7256 48.5449 45.4019C49.586 44.5928 50.547 43.5409 50.4669 42.1654C50.4669 41.5181 50.2267 40.8708 49.9864 40.3045C51.2678 39.7381 52.9495 39.4144 55.0317 39.6572C59.4363 40.2235 60.3173 43.0555 60.1571 44.1882C59.9969 45.4019 59.0359 46.0492 58.7156 46.211C58.3952 46.4538 58.3152 46.4538 58.3952 46.6156C58.3952 46.8583 58.5554 46.8583 58.7957 46.7774C59.1961 46.6965 61.1181 45.8065 61.1982 43.6219C61.3584 40.8708 58.7156 37.8771 54.0707 37.8771ZM19.7146 49.6094C18.2731 51.2276 16.1909 51.8749 15.31 51.3085C14.349 50.7421 14.7494 48.3957 16.5913 46.6156C17.6324 45.5638 19.0739 44.5928 20.0349 44.0264C20.2752 43.8646 20.5155 43.7028 20.9159 43.46C20.996 43.46 20.996 43.3791 20.996 43.3791C21.076 43.3791 21.1561 43.2982 21.2362 43.2982C21.957 45.7256 21.3163 47.9102 19.7146 49.6094ZM30.526 42.2463C29.9654 43.46 28.9243 46.6965 28.2836 46.5347C27.723 46.4538 27.3226 43.9455 28.1234 41.5181C28.5239 40.3045 29.4048 38.848 29.8853 38.2816C30.6861 37.3916 31.5671 37.068 31.8073 37.4725C32.0476 37.8771 30.8463 41.4372 30.526 42.2463ZM39.4153 46.5347C39.1751 46.6156 38.9348 46.6965 38.8547 46.6156C38.7746 46.6156 38.9348 46.4538 38.9348 46.4538C38.9348 46.4538 40.056 45.2401 40.5365 44.6737C40.7767 44.3501 41.0971 44.0264 41.4174 43.5409C41.4174 43.6219 41.4174 43.6219 41.4174 43.7028C41.4174 45.1592 39.9759 46.1301 39.4153 46.5347ZM46.2225 44.9165C46.0623 44.8355 46.1424 44.431 46.6229 43.2982C46.8631 42.8127 47.3436 42.0036 48.1445 41.2754C48.2246 41.5181 48.3046 41.8418 48.3046 42.1654C48.3046 43.9455 47.0233 44.6737 46.2225 44.9165Z" fill="#FCFCFC"/>
</svg>
