<svg width="71" height="70" viewBox="0 0 71 70" fill="none" xmlns="http://www.w3.org/2000/svg">
<path d="M28.5414 47.3584C28.5414 47.1912 28.3715 47.024 28.1167 47.024C27.8618 47.024 27.6919 47.1912 27.6919 47.3584C27.6919 47.5256 27.8618 47.6928 28.1167 47.6092C28.3715 47.6092 28.5414 47.5256 28.5414 47.3584ZM25.9079 46.9404C25.9079 47.1076 26.0778 47.3584 26.3327 47.3584C26.5026 47.442 26.7574 47.3584 26.8424 47.1912C26.8424 47.024 26.7574 46.8568 26.5026 46.7732C26.2477 46.6897 25.9928 46.7732 25.9079 46.9404ZM29.7308 46.8568C29.4759 46.8568 29.306 47.024 29.306 47.2748C29.306 47.442 29.5609 47.5256 29.8157 47.442C30.0706 47.3584 30.2405 47.2748 30.1555 47.1076C30.1555 46.9404 29.9007 46.7732 29.7308 46.8568ZM35.2527 14.7578C23.5292 14.7578 14.5242 23.6185 14.5242 35.1541C14.5242 44.4327 20.3859 52.3739 28.8812 55.216C29.9856 55.3831 30.3255 54.7144 30.3255 54.2129C30.3255 53.6277 30.3255 50.7856 30.3255 49.0302C30.3255 49.0302 24.3787 50.2841 23.1044 46.5225C23.1044 46.5225 22.17 44.0983 20.8107 43.5132C20.8107 43.5132 18.8568 42.1757 20.8957 42.1757C20.8957 42.1757 23.0195 42.3429 24.2088 44.3491C26.0778 47.6092 29.1361 46.6897 30.4104 46.1045C30.5803 44.7671 31.09 43.8476 31.7697 43.2624C27.0123 42.7609 22.17 42.0921 22.17 34.0674C22.17 31.7268 22.8496 30.6401 24.2088 29.1355C23.954 28.5504 23.2743 26.377 24.4637 23.4513C26.1627 22.9498 30.3255 25.7083 30.3255 25.7083C32.0245 25.2067 33.8085 25.0395 35.5925 25.0395C37.4615 25.0395 39.2455 25.2067 40.9446 25.7083C40.9446 25.7083 45.0223 22.8662 46.8064 23.4513C47.9957 26.377 47.2311 28.5504 47.0612 29.1355C48.4205 30.6401 49.27 31.7268 49.27 34.0674C49.27 42.0921 44.2578 42.7609 39.5004 43.2624C40.265 43.9311 40.9446 45.185 40.9446 47.1912C40.9446 49.9497 40.8596 53.4605 40.8596 54.1293C40.8596 54.7144 41.2844 55.3831 42.3888 55.1324C50.8841 52.3739 56.6609 44.4327 56.6609 35.1541C56.6609 23.6185 47.0612 14.7578 35.2527 14.7578ZM22.7646 43.5968C22.5947 43.6804 22.6797 43.9311 22.7646 44.0983C22.9345 44.1819 23.1044 44.2655 23.2743 44.1819C23.3593 44.0983 23.3593 43.8476 23.1894 43.6804C23.0195 43.5968 22.8496 43.5132 22.7646 43.5968ZM21.8301 42.9281C21.7452 43.0952 21.8301 43.1788 22 43.2624C22.17 43.346 22.3399 43.346 22.4248 43.1788C22.4248 43.0952 22.3399 43.0116 22.17 42.9281C22 42.8445 21.9151 42.8445 21.8301 42.9281ZM24.5486 45.9373C24.4637 46.0209 24.4637 46.2717 24.7185 46.4389C24.8885 46.6061 25.1433 46.6897 25.2283 46.5225C25.3132 46.4389 25.3132 46.1881 25.1433 46.0209C24.9734 45.8537 24.7185 45.7702 24.5486 45.9373ZM23.6142 44.6835C23.4442 44.7671 23.4442 45.0178 23.6142 45.185C23.7841 45.3522 23.954 45.4358 24.1239 45.3522C24.2088 45.2686 24.2088 45.0178 24.1239 44.8506C23.954 44.6835 23.7841 44.5999 23.6142 44.6835Z" fill="#FCFCFC"/>
</svg>
