<svg width="71" height="70" viewBox="0 0 71 70" fill="none" xmlns="http://www.w3.org/2000/svg">
<path d="M23.4546 16.5365C23.2127 15.8176 22.1642 15.8176 21.9223 16.5365L17.3252 30.5166H27.971L23.4546 16.5365ZM14.9863 37.5465C14.825 38.1856 15.067 38.9046 15.6315 39.304L35.5522 54.003L17.3252 30.5166L14.9863 37.5465ZM27.971 30.5166L35.6329 54.003L43.214 30.5166H27.971ZM56.1987 37.5465L53.8599 30.5166L35.6329 54.003L55.5535 39.304C56.1181 38.9046 56.36 38.1856 56.1987 37.5465ZM49.2628 16.5365C49.0208 15.8176 48.053 15.8176 47.7304 16.5365L43.214 30.5166H53.8599L49.2628 16.5365Z" fill="#FCFCFC"/>
</svg>
