<svg width="71" height="70" viewBox="0 0 71 70" fill="none" xmlns="http://www.w3.org/2000/svg">
<path d="M37.8577 33.4569V28.7094H32.7498V33.4569H37.8577ZM37.8577 17.2363H32.7498V22.0629H37.8577V17.2363ZM43.9717 28.7094H38.8638V33.4569H43.9717V28.7094ZM31.8211 23.0124H26.7132V27.7599H31.8211V23.0124ZM37.8577 23.0124H32.7498V27.7599H37.8577V23.0124ZM59.2954 30.9249C58.2119 30.1337 55.6579 29.8963 53.6457 30.2919C53.4136 28.3929 52.3301 26.7313 50.4727 25.2279L49.3892 24.5158L48.6926 25.6236C47.2222 27.8391 46.8352 31.3997 48.3831 33.8526C47.6865 34.169 46.3709 34.7229 44.6682 34.6438H11.0026C10.3061 38.6792 11.467 43.9014 14.4079 47.462C17.2714 50.9435 21.6054 52.7634 27.1776 52.7634C39.4056 52.7634 48.3831 46.9873 52.6396 36.5428C54.2649 36.6219 57.8249 36.5428 59.6823 32.9822C59.8371 32.8239 60.2241 31.9536 60.3789 31.6371L59.2954 30.9249ZM19.7479 28.7094H14.6401V33.4569H19.7479V28.7094ZM25.7845 28.7094H20.6767V33.4569H25.7845V28.7094ZM31.8211 28.7094H26.7132V33.4569H31.8211V28.7094ZM25.7845 23.0124H20.6767V27.7599H25.7845V23.0124Z" fill="#FCFCFC"/>
</svg>
