<svg width="71" height="70" viewBox="0 0 71 70" fill="none" xmlns="http://www.w3.org/2000/svg">
<g clip-path="url(#clip0_1828_3835)">
<path fill-rule="evenodd" clip-rule="evenodd" d="M17.3094 12.2793H53.8758C56.3266 12.2793 58.3134 14.2661 58.3134 16.717V53.2833C58.3134 55.7341 56.3266 57.7209 53.8758 57.7209H17.3094C14.8586 57.7209 12.8718 55.7341 12.8718 53.2833V16.717C12.8718 14.2661 14.8586 12.2793 17.3094 12.2793ZM41.0011 52.8824V48.4394C41.8067 49.1151 42.6818 49.6219 43.6264 49.9597C44.571 50.2976 45.5247 50.4665 46.4878 50.4665C47.0527 50.4665 47.5457 50.4156 47.9671 50.3137C48.3884 50.2119 48.7403 50.0708 49.0227 49.8903C49.3051 49.7098 49.5158 49.4969 49.6547 49.2516C49.7936 49.0063 49.8631 48.7402 49.8631 48.4533C49.8631 48.0645 49.752 47.7174 49.5298 47.412C49.3074 47.1065 49.0042 46.8241 48.6199 46.565C48.2357 46.3058 47.7796 46.0559 47.2517 45.8152C46.7239 45.5745 46.1544 45.3293 45.5432 45.0793C43.9875 44.4314 42.8277 43.6399 42.0638 42.7051C41.2998 41.7702 40.9178 40.6409 40.9178 39.3172C40.9178 38.2805 41.1262 37.3896 41.5429 36.6445C41.9596 35.8993 42.5267 35.2861 43.2444 34.8047C43.9621 34.3234 44.7932 33.9694 45.7377 33.7426C46.6822 33.5159 47.6823 33.4024 48.738 33.4024C49.7751 33.4024 50.6942 33.4649 51.4952 33.5899C52.2962 33.7149 53.0347 33.9069 53.7107 34.1661V38.3176C53.3773 38.0861 53.0139 37.8825 52.6203 37.7066C52.2267 37.5308 51.8217 37.385 51.405 37.2692C50.9882 37.1536 50.5738 37.0679 50.1617 37.0124C49.7496 36.9569 49.3584 36.9291 48.988 36.9291C48.4787 36.9291 48.0157 36.9777 47.5989 37.0749C47.1823 37.1721 46.8304 37.3086 46.5433 37.4845C46.2563 37.6604 46.0341 37.8709 45.8766 38.1162C45.7192 38.3615 45.6404 38.6369 45.6404 38.9423C45.6404 39.2756 45.7285 39.5741 45.9044 39.8379C46.0803 40.1017 46.3303 40.3516 46.6544 40.5877C46.9786 40.8237 47.3721 41.0551 47.8351 41.282C48.2981 41.5087 48.8213 41.7424 49.4047 41.9831C50.2011 42.3163 50.9165 42.6703 51.5508 43.0452C52.1851 43.4201 52.7292 43.8436 53.1829 44.3157C53.6367 44.7878 53.9839 45.327 54.2246 45.9332C54.4654 46.5395 54.5858 47.2453 54.5858 48.0506C54.5858 49.1614 54.3751 50.0939 53.9538 50.8483C53.5325 51.6027 52.9606 52.2137 52.2383 52.6811C51.5161 53.1485 50.6757 53.4841 49.7172 53.6877C48.7588 53.8914 47.7472 53.9932 46.6822 53.9932C45.5895 53.9932 44.5501 53.9006 43.5639 53.7155C42.5776 53.5303 41.7234 53.2527 41.0011 52.8824ZM39.2315 37.4924H33.5317V53.7269H29.0165V37.4924H23.3446V33.8462H39.2315V37.4924Z" fill="#FCFCFC"/>
</g>
<defs>
<clipPath id="clip0_1828_3835">
<rect width="45.4417" height="45.4417" fill="white" transform="translate(12.8718 12.2793)"/>
</clipPath>
</defs>
</svg>
