<svg width="71" height="70" viewBox="0 0 71 70" fill="none" xmlns="http://www.w3.org/2000/svg">
<path d="M35.1847 54.829C35.3886 54.829 35.5926 54.829 35.7966 54.7277L41.7117 51.2825C42.0177 51.0798 42.3236 50.6745 42.3236 50.2692V43.48C42.3236 43.0747 42.0177 42.6694 41.7117 42.4667L35.7966 39.0215C35.3886 38.8188 34.8787 38.8188 34.5727 39.0215L28.6576 42.4667C28.2497 42.6694 28.0457 43.0747 28.0457 43.48V50.2692C28.0457 50.6745 28.2497 51.0798 28.6576 51.2825L30.1874 52.1944C30.9013 52.5997 31.2072 52.5997 31.5132 52.5997C32.635 52.5997 33.3489 51.8904 33.3489 50.7758V44.088C33.3489 43.9867 33.2469 43.8854 33.1449 43.8854H32.4311C32.3291 43.8854 32.2271 43.9867 32.2271 44.088V50.7758C32.2271 51.2825 31.7172 51.7891 30.7993 51.2825L29.1675 50.3705L29.0655 50.2692V43.48L29.1675 43.3787L35.0827 39.9335C35.1847 39.9335 35.1847 39.9335 35.2866 39.9335L41.2018 43.3787C41.2018 43.3787 41.2018 43.3787 41.2018 43.48V50.2692C41.2018 50.3705 41.2018 50.3705 41.2018 50.3705L35.2866 53.8157C35.1847 53.8157 35.0827 53.8157 35.0827 53.8157L33.5529 52.9037H33.4509C33.043 53.1064 32.941 53.2077 32.533 53.3091C32.4311 53.3091 32.3291 53.4104 32.635 53.5117L34.5727 54.7277C34.7767 54.829 34.9807 54.829 35.1847 54.829ZM39.978 48.2426C39.978 46.9253 39.0601 46.6213 37.2244 46.3173C35.3886 46.1146 35.2866 46.0133 35.2866 45.608C35.2866 45.2026 35.3886 44.7973 36.7144 44.7973C37.9383 44.7973 38.4482 45 38.5502 45.8106C38.6522 45.912 38.6522 45.912 38.7541 45.912H39.57C39.57 45.912 39.57 45.912 39.672 45.912V45.8106C39.57 44.392 38.6522 43.6827 36.7144 43.6827C35.0827 43.6827 34.0628 44.392 34.0628 45.608C34.0628 46.9253 35.0827 47.2292 36.7144 47.4319C38.6522 47.6346 38.7541 47.8372 38.7541 48.2426C38.7541 48.9519 38.2442 49.1545 37.0204 49.1545C35.3886 49.1545 35.0827 48.7492 34.9807 48.0399C34.9807 47.9386 34.8787 47.8372 34.7767 47.8372H34.0628C33.9608 47.8372 33.8588 47.9386 33.8588 48.0399C33.8588 49.0532 34.3688 50.1678 37.0204 50.1678C38.8561 50.1678 39.978 49.4585 39.978 48.2426ZM45.4852 43.176C45.4852 42.4667 44.9753 41.9601 44.3633 41.9601C43.7514 41.9601 43.2415 42.4667 43.2415 43.176C43.2415 43.784 43.7514 44.2907 44.3633 44.2907C44.9753 44.2907 45.4852 43.784 45.4852 43.176ZM45.2812 43.176C45.2812 43.6827 44.8733 44.088 44.3633 44.088C43.8534 44.088 43.4455 43.6827 43.4455 43.176C43.4455 42.5681 43.8534 42.1627 44.3633 42.1627C44.8733 42.1627 45.2812 42.5681 45.2812 43.176ZM44.8733 43.784C44.7713 43.6827 44.7713 43.48 44.7713 43.3787C44.7713 43.2774 44.7713 43.176 44.5673 43.176C44.6693 43.0747 44.7713 43.0747 44.7713 42.872C44.7713 42.4667 44.5673 42.4667 44.3633 42.4667H43.9554V43.784H44.1594V43.2774H44.3633C44.4653 43.2774 44.4653 43.2774 44.5673 43.3787C44.5673 43.3787 44.5673 43.6827 44.5673 43.784H44.8733ZM44.5673 42.872C44.5673 42.9734 44.5673 43.0747 44.3633 43.0747H44.1594V42.6694H44.3633C44.4653 42.6694 44.5673 42.6694 44.5673 42.872ZM16.9293 28.3818C16.9293 28.1792 16.7253 27.8752 16.5213 27.7738L10.3002 24.2273C10.1982 24.126 10.0963 24.126 9.89228 24.126C9.7903 24.126 9.68831 24.126 9.48434 24.2273L3.26323 27.7738C3.05926 27.8752 2.95728 28.1792 2.95728 28.3818V38.0082C2.95728 38.2109 2.95728 38.3122 3.05926 38.4135C3.26323 38.4135 3.36522 38.4135 3.4672 38.4135L7.24066 36.2856C7.44463 36.0829 7.54662 35.8803 7.54662 35.5763V31.1177C7.54662 30.8138 7.75059 30.6111 7.95456 30.5098L9.48434 29.5978C9.68831 29.4965 9.7903 29.4965 9.89228 29.4965C9.99427 29.4965 10.1982 29.4965 10.3002 29.5978L11.83 30.5098C12.136 30.6111 12.2379 30.8138 12.2379 31.1177V35.5763C12.2379 35.8803 12.3399 36.0829 12.6459 36.2856L16.3174 38.4135C16.4193 38.4135 16.6233 38.4135 16.7253 38.4135C16.8273 38.3122 16.9293 38.2109 16.9293 38.0082V28.3818ZM51.0944 17.9448C51.0944 17.6408 50.9924 17.4382 50.6864 17.2355L47.015 15.2089C46.709 15.1076 46.4031 15.2089 46.4031 15.5129V25.0379C46.4031 25.2406 46.1991 25.3419 45.9951 25.2406L44.4653 24.4299C44.2614 24.2273 43.9554 24.2273 43.7514 24.4299L37.4283 27.9765C37.2244 28.0778 37.1224 28.3818 37.1224 28.5845V35.7789C37.1224 36.0829 37.2244 36.2856 37.4283 36.4882L43.7514 40.0348C43.9554 40.1361 44.2614 40.1361 44.4653 40.0348L50.6864 36.4882C50.9924 36.2856 51.0944 36.0829 51.0944 35.7789V17.9448ZM46.4031 31.0164V33.4483C46.4031 33.5497 46.4031 33.5497 46.3011 33.651L44.1594 34.867C44.1594 34.867 44.0574 34.867 43.9554 34.867L41.8137 33.651C41.8137 33.5497 41.7117 33.5497 41.7117 33.4483V31.0164C41.7117 30.9151 41.8137 30.8138 41.8137 30.8138L43.9554 29.5978C44.0574 29.5978 44.1594 29.5978 44.1594 29.5978L46.3011 30.8138C46.4031 30.8138 46.4031 30.9151 46.4031 31.0164ZM67.82 30.9151C68.024 30.8138 68.2279 30.5098 68.2279 30.3071V28.4832C68.2279 28.2805 68.024 27.9765 67.82 27.8752L61.5989 24.3286C61.3949 24.126 61.0889 24.126 60.885 24.3286L54.5619 27.8752C54.3579 27.9765 54.2559 28.2805 54.2559 28.4832V35.6776C54.2559 35.9816 54.3579 36.1843 54.5619 36.3869L60.783 39.8321C60.987 40.0348 61.2929 40.0348 61.4969 39.8321L65.2704 37.8055C65.5763 37.6029 65.5763 37.2989 65.2704 37.0962L59.0492 33.5497C58.8453 33.4483 58.8453 33.347 58.8453 33.2457V31.0164C58.8453 30.8138 58.8453 30.7124 59.0492 30.6111L60.987 29.4965C61.0889 29.4965 61.1909 29.4965 61.2929 29.4965L63.3326 30.6111C63.4346 30.7124 63.5366 30.8138 63.5366 31.0164V32.739C63.5366 33.043 63.8426 33.2457 64.0465 33.043L67.82 30.9151ZM59.9671 31.2191C59.8651 31.3204 59.8651 31.3204 59.8651 31.4217V32.739C59.8651 32.8404 59.8651 32.8404 59.9671 32.8404L61.0889 33.5497C61.1909 33.651 61.1909 33.651 61.2929 33.5497L62.5167 32.8404C62.5167 32.8404 62.5167 32.8404 62.5167 32.739V31.4217C62.5167 31.3204 62.5167 31.3204 62.5167 31.2191L61.2929 30.6111C61.1909 30.5098 61.1909 30.5098 61.0889 30.6111L59.9671 31.2191ZM33.9608 35.6776V28.5845C33.9608 28.2805 33.8588 27.9765 33.5529 27.8752L27.3318 24.3286C27.1278 24.2273 26.8219 24.2273 26.6179 24.3286L20.3968 27.8752C20.1928 27.9765 19.9888 28.2805 19.9888 28.5845V35.6776C19.9888 35.9816 20.1928 36.1843 20.3968 36.2856L26.6179 39.9335C26.9238 40.0348 27.1278 40.0348 27.4338 39.9335L33.6549 36.2856C33.7569 36.1843 33.9608 36.0829 33.9608 35.8803C33.9608 35.7789 33.9608 35.7789 33.9608 35.6776ZM26.4139 23.0113V23.1127H26.3119L26.4139 23.0113Z" fill="#FCFCFC"/>
</svg>
