<svg width="71" height="70" viewBox="0 0 71 70" fill="none" xmlns="http://www.w3.org/2000/svg">
<path d="M55.8974 29.7772C55.1729 26.8697 53.7991 24.6774 50.8728 24.6774H47.0996V29.1374C47.0996 32.6 44.1639 35.5169 40.8142 35.5169H30.765C28.0175 35.5169 25.7404 37.8693 25.7404 40.6262V50.2049C25.7404 52.9336 28.1116 54.5332 30.765 55.3142C33.9454 56.2457 37.0034 56.4151 40.8142 55.3142C43.3453 54.5802 45.8388 53.103 45.8388 50.2049V46.3753H35.799V45.0956H50.8728C53.7991 45.0956 54.8812 43.0538 55.8974 39.9958C56.9512 36.8436 56.9042 33.8138 55.8974 29.7772V29.7772ZM41.4446 48.9252C42.4891 48.9252 43.3359 49.7815 43.3359 50.8353C43.3359 51.8986 42.4891 52.7548 41.4446 52.7548C40.4096 52.7548 39.5533 51.8892 39.5533 50.8353C39.5628 49.7721 40.4096 48.9252 41.4446 48.9252ZM30.304 34.2561H40.3531C43.1477 34.2561 45.3777 31.9508 45.3777 29.1468V19.5587C45.3777 16.83 43.0818 14.7881 40.3531 14.3271C36.9846 13.7719 33.3244 13.8002 30.304 14.3365C26.0509 15.0892 25.2794 16.6606 25.2794 19.5681V23.3977H35.338V24.6774H21.5062C18.5799 24.6774 16.0206 26.4369 15.2208 29.7772C14.2987 33.6068 14.261 35.9968 15.2208 39.9958C15.9359 42.9691 17.639 45.0956 20.5653 45.0956H24.0185V40.5039C24.0185 37.1824 26.8884 34.2561 30.304 34.2561ZM29.6735 20.8384C28.6291 20.8384 27.7823 19.9821 27.7823 18.9283C27.7917 17.865 28.6291 17.0087 29.6735 17.0087C30.7086 17.0087 31.5648 17.8744 31.5648 18.9283C31.5648 19.9821 30.718 20.8384 29.6735 20.8384V20.8384Z" fill="#FCFCFC"/>
</svg>
