<svg width="71" height="70" viewBox="0 0 71 70" fill="none" xmlns="http://www.w3.org/2000/svg">
<path d="M28.5415 47.3584C28.5415 47.1912 28.3716 47.024 28.1167 47.024C27.8619 47.024 27.692 47.1912 27.692 47.3584C27.692 47.5256 27.8619 47.6928 28.1167 47.6092C28.3716 47.6092 28.5415 47.5256 28.5415 47.3584ZM25.908 46.9404C25.908 47.1076 26.0779 47.3584 26.3327 47.3584C26.5026 47.442 26.7575 47.3584 26.8424 47.1912C26.8424 47.024 26.7575 46.8568 26.5026 46.7732C26.2478 46.6897 25.9929 46.7732 25.908 46.9404ZM29.7308 46.8568C29.476 46.8568 29.3061 47.024 29.3061 47.2748C29.3061 47.442 29.5609 47.5256 29.8158 47.442C30.0707 47.3584 30.2406 47.2748 30.1556 47.1076C30.1556 46.9404 29.9007 46.7732 29.7308 46.8568ZM35.2528 14.7578C23.5293 14.7578 14.5242 23.6185 14.5242 35.1541C14.5242 44.4327 20.386 52.3739 28.8813 55.216C29.9857 55.3831 30.3255 54.7144 30.3255 54.2129C30.3255 53.6277 30.3255 50.7856 30.3255 49.0302C30.3255 49.0302 24.3788 50.2841 23.1045 46.5225C23.1045 46.5225 22.17 44.0983 20.8108 43.5132C20.8108 43.5132 18.8568 42.1757 20.8957 42.1757C20.8957 42.1757 23.0195 42.3429 24.2089 44.3491C26.0779 47.6092 29.1362 46.6897 30.4105 46.1045C30.5804 44.7671 31.0901 43.8476 31.7697 43.2624C27.0123 42.7609 22.17 42.0921 22.17 34.0674C22.17 31.7268 22.8496 30.6401 24.2089 29.1355C23.954 28.5504 23.2744 26.377 24.4637 23.4513C26.1628 22.9498 30.3255 25.7083 30.3255 25.7083C32.0246 25.2067 33.8086 25.0395 35.5926 25.0395C37.4616 25.0395 39.2456 25.2067 40.9447 25.7083C40.9447 25.7083 45.0224 22.8662 46.8064 23.4513C47.9958 26.377 47.2312 28.5504 47.0613 29.1355C48.4205 30.6401 49.2701 31.7268 49.2701 34.0674C49.2701 42.0921 44.2578 42.7609 39.5005 43.2624C40.265 43.9311 40.9447 45.185 40.9447 47.1912C40.9447 49.9497 40.8597 53.4605 40.8597 54.1293C40.8597 54.7144 41.2845 55.3831 42.3889 55.1324C50.8842 52.3739 56.661 44.4327 56.661 35.1541C56.661 23.6185 47.0613 14.7578 35.2528 14.7578ZM22.7647 43.5968C22.5948 43.6804 22.6797 43.9311 22.7647 44.0983C22.9346 44.1819 23.1045 44.2655 23.2744 44.1819C23.3594 44.0983 23.3594 43.8476 23.1894 43.6804C23.0195 43.5968 22.8496 43.5132 22.7647 43.5968ZM21.8302 42.9281C21.7452 43.0952 21.8302 43.1788 22.0001 43.2624C22.17 43.346 22.3399 43.346 22.4249 43.1788C22.4249 43.0952 22.3399 43.0116 22.17 42.9281C22.0001 42.8445 21.9152 42.8445 21.8302 42.9281ZM24.5487 45.9373C24.4637 46.0209 24.4637 46.2717 24.7186 46.4389C24.8885 46.6061 25.1434 46.6897 25.2283 46.5225C25.3133 46.4389 25.3133 46.1881 25.1434 46.0209C24.9735 45.8537 24.7186 45.7702 24.5487 45.9373ZM23.6142 44.6835C23.4443 44.7671 23.4443 45.0178 23.6142 45.185C23.7841 45.3522 23.954 45.4358 24.1239 45.3522C24.2089 45.2686 24.2089 45.0178 24.1239 44.8506C23.954 44.6835 23.7841 44.5999 23.6142 44.6835Z" fill="#FCFCFC"/>
</svg>
