<svg width="71" height="70" viewBox="0 0 71 70" fill="none" xmlns="http://www.w3.org/2000/svg">
<path d="M51.8005 27.0343C51.2002 26.8316 50.7 26.6289 50.1997 26.5275C50.1997 26.1221 50.2998 25.7167 50.3998 25.3113C51.6004 19.3312 50.8 14.4661 48.0987 12.8444C45.4974 11.3241 41.1953 12.9458 36.7932 16.7973C36.393 17.1014 35.9928 17.5068 35.5926 17.9123C35.2924 17.6082 34.9923 17.4055 34.7922 17.1014C30.1899 13.0472 25.5877 11.3241 22.8864 12.9458C20.2851 14.4661 19.4847 19.0272 20.5852 24.8045C20.6853 25.3113 20.7853 25.9194 20.9854 26.4262C20.2851 26.6289 19.6848 26.8316 19.0845 27.0343C13.7819 28.9601 9.98004 31.8994 9.98004 34.9401C9.98004 38.0822 13.982 41.3256 19.5847 43.2513C19.9849 43.3527 20.4852 43.5554 20.8854 43.6568C20.7853 44.2649 20.6853 44.873 20.4852 45.4812C19.4847 51.0558 20.2851 55.5155 22.8864 57.0358C25.5877 58.6575 30.1899 57.0358 34.5921 53.0829C34.8922 52.7788 35.2924 52.4748 35.5926 52.1707C36.0928 52.5761 36.493 52.9816 36.9933 53.387C41.2954 57.1372 45.4974 58.6575 48.0987 57.1372C50.8 55.5155 51.7005 50.7517 50.5999 44.8731C50.4999 44.4676 50.3998 43.9608 50.2998 43.5554C50.5999 43.4541 50.9001 43.3527 51.2002 43.2513C57.0031 41.3256 61.2051 38.1835 61.2051 34.9401C61.2051 31.8994 57.2032 28.8587 51.8005 27.0343ZM38.1939 18.419C41.9957 15.0743 45.3974 13.858 46.9982 14.7702C48.699 15.6824 49.3993 19.7367 48.2988 24.9058C48.1987 25.3113 48.1987 25.6153 48.0987 25.9194C45.7976 25.4126 43.5965 25.1086 41.2954 24.9058C39.9947 22.9801 38.594 21.1557 37.0933 19.4326C37.4935 19.1285 37.7937 18.7231 38.1939 18.419ZM26.6882 40.2107C27.1885 41.1229 27.6887 41.9337 28.289 42.8459C26.6882 42.6432 25.0874 42.4405 23.5867 42.0351C24.0869 40.6161 24.5872 39.0957 25.1875 37.5754C25.6877 38.4876 26.188 39.2985 26.6882 40.2107ZM23.5867 28.0479C25.0874 27.6425 26.5882 27.4398 28.189 27.237C27.6887 28.0479 27.1885 28.9601 26.6882 29.771C26.188 30.6832 25.6877 31.494 25.1875 32.4062C24.5872 30.8859 24.0869 29.4669 23.5867 28.0479ZM26.3881 35.0415C26.9884 33.6225 27.7888 32.2035 28.4891 30.8859C29.2895 29.5682 30.0899 28.2506 30.9903 26.933C32.4911 26.8316 33.9918 26.7303 35.5926 26.7303C37.0933 26.7303 38.6941 26.8316 40.0948 26.933C40.9952 28.2506 41.7956 29.5682 42.596 30.8859C43.2963 32.2035 44.0967 33.5211 44.697 34.9401C44.0967 36.3591 43.3964 37.7781 42.596 39.0957C41.7956 40.4134 40.9952 41.731 40.1948 43.0486C38.6941 43.15 37.0933 43.2513 35.5926 43.2513C33.9918 43.2513 32.4911 43.15 30.9903 43.0486C30.0899 41.731 29.2895 40.4134 28.4891 39.0957C27.7888 37.7781 27.0884 36.3591 26.3881 35.0415ZM44.3969 40.2107C44.9972 39.2985 45.3974 38.3862 45.8976 37.474C46.4979 38.9944 47.0982 40.4134 47.5985 41.9337C45.9977 42.3391 44.4969 42.6432 42.8962 42.7446C43.3964 41.9337 43.8966 41.0215 44.3969 40.2107ZM45.8976 32.4062C45.3974 31.494 44.8971 30.6832 44.3969 29.771C43.8966 28.9601 43.3964 28.0479 42.8962 27.237C44.4969 27.4398 46.0977 27.7438 47.4984 28.0479C46.9982 29.5682 46.4979 30.9872 45.8976 32.4062ZM35.5926 21.0543C36.5931 22.1692 37.5936 23.3855 38.494 24.7031C36.5931 24.6018 34.5921 24.6018 32.5911 24.7031C33.5916 23.3855 34.5921 22.1692 35.5926 21.0543ZM23.9869 14.7702C25.6877 13.858 29.3895 15.277 33.2915 18.7231C33.5916 19.0272 33.7917 19.2299 34.0918 19.4326C32.4911 21.1557 31.0904 22.9801 29.7897 24.9058C27.4886 25.1086 25.2875 25.4126 23.0865 25.9194C22.8864 25.4126 22.7863 24.9058 22.6863 24.2977C21.7858 19.4326 22.3861 15.7838 23.9869 14.7702ZM21.4857 41.5283C21.0855 41.4269 20.6853 41.3256 20.2851 41.1229C18.1841 40.4134 15.6828 39.3998 13.982 37.9808C12.9815 37.2713 12.2812 36.1564 12.0811 34.9401C12.0811 33.1157 15.2826 30.6832 19.7848 29.0615C20.3851 28.8587 20.9854 28.7574 21.5857 28.5547C22.186 30.7845 23.0865 32.913 23.9869 35.0415C22.9864 37.0686 22.186 39.2985 21.4857 41.5283ZM33.1914 51.4612C31.4906 52.9816 29.5896 54.1978 27.4886 55.0087C26.3881 55.6168 25.1875 55.6168 23.9869 55.2114C22.3861 54.1978 21.7858 50.6504 22.6863 45.8866C22.7863 45.2785 22.8864 44.6703 22.9864 44.1636C25.2875 44.6703 27.4886 44.9744 29.7897 45.1771C31.0904 47.0015 32.5911 48.8259 34.0918 50.549C33.7917 50.8531 33.4915 51.1571 33.1914 51.4612ZM35.5926 49.0287C34.5921 47.9137 33.5916 46.6975 32.5911 45.2785C33.5916 45.3798 34.5921 45.3798 35.5926 45.3798C36.5931 45.3798 37.5936 45.3798 38.594 45.2785C37.6936 46.5961 36.6931 47.8124 35.5926 49.0287ZM48.699 52.0694C48.5989 53.2856 47.9987 54.4006 47.0982 55.2114C45.4974 56.1236 42.0958 54.9073 38.3939 51.7653C37.9938 51.3599 37.5936 50.9544 37.0933 50.549C38.6941 48.8259 40.0948 47.1029 41.3954 45.1771C43.6965 44.9744 45.8976 44.569 48.1987 44.0622C48.2988 44.4676 48.3988 44.8731 48.4989 45.2785C48.8991 47.5083 48.9991 49.8395 48.699 52.0694ZM50.4999 41.1229C50.1997 41.2242 49.9996 41.3256 49.6995 41.4269C48.9991 39.1971 48.0987 37.0686 47.0982 34.9401C48.0987 32.913 48.8991 30.7845 49.5994 28.5547C50.0997 28.7574 50.5999 28.8587 51.1002 29.0615C55.7024 30.6832 59.004 33.1157 59.004 34.9401C59.004 36.8659 55.5023 39.5012 50.4999 41.1229ZM35.5926 39.6025C38.0938 39.6025 40.0948 37.5754 40.0948 34.9401C40.0948 32.4062 38.0938 30.3791 35.5926 30.3791C32.9913 30.3791 30.9903 32.4062 30.9903 34.9401C30.9903 37.5754 32.9913 39.6025 35.5926 39.6025Z" fill="#FCFCFC"/>
</svg>
