<svg width="71" height="70" viewBox="0 0 71 70" fill="none" xmlns="http://www.w3.org/2000/svg">
<path d="M23.4547 16.5365C23.2127 15.8176 22.1643 15.8176 21.9223 16.5365L17.3252 30.5166H27.9711L23.4547 16.5365ZM14.9864 37.5465C14.8251 38.1856 15.067 38.9046 15.6316 39.304L35.5523 54.003L17.3252 30.5166L14.9864 37.5465ZM27.9711 30.5166L35.6329 54.003L43.2141 30.5166H27.9711ZM56.1988 37.5465L53.8599 30.5166L35.6329 54.003L55.5536 39.304C56.1182 38.9046 56.3601 38.1856 56.1988 37.5465ZM49.2629 16.5365C49.0209 15.8176 48.0531 15.8176 47.7305 16.5365L43.2141 30.5166H53.8599L49.2629 16.5365Z" fill="#FCFCFC"/>
</svg>
