<svg width="71" height="70" viewBox="0 0 71 70" fill="none" xmlns="http://www.w3.org/2000/svg">
<path d="M37.8578 33.4569V28.7094H32.7499V33.4569H37.8578ZM37.8578 17.2363H32.7499V22.0629H37.8578V17.2363ZM43.9718 28.7094H38.8639V33.4569H43.9718V28.7094ZM31.8212 23.0124H26.7133V27.7599H31.8212V23.0124ZM37.8578 23.0124H32.7499V27.7599H37.8578V23.0124ZM59.2954 30.9249C58.2119 30.1337 55.658 29.8963 53.6458 30.2919C53.4136 28.3929 52.3301 26.7313 50.4727 25.2279L49.3892 24.5158L48.6927 25.6236C47.2222 27.8391 46.8353 31.3997 48.3831 33.8526C47.6866 34.169 46.3709 34.7229 44.6683 34.6438H11.0027C10.3062 38.6792 11.467 43.9014 14.4079 47.462C17.2715 50.9435 21.6054 52.7634 27.1777 52.7634C39.4056 52.7634 48.3831 46.9873 52.6397 36.5428C54.2649 36.6219 57.825 36.5428 59.6824 32.9822C59.8372 32.8239 60.2241 31.9536 60.3789 31.6371L59.2954 30.9249ZM19.748 28.7094H14.6401V33.4569H19.748V28.7094ZM25.7846 28.7094H20.6767V33.4569H25.7846V28.7094ZM31.8212 28.7094H26.7133V33.4569H31.8212V28.7094ZM25.7846 23.0124H20.6767V27.7599H25.7846V23.0124Z" fill="#FCFCFC"/>
</svg>
