<svg width="195" height="290" viewBox="0 0 195 290" fill="none" xmlns="http://www.w3.org/2000/svg">
<path d="M0 14.0569H69.7907C86.0198 13.9812 102.198 15.8535 117.968 19.6326C132.332 22.9766 145.87 29.1263 157.782 37.7182C169.285 46.2668 178.542 57.4081 184.779 70.2091C191.444 83.5509 194.776 99.7253 194.776 118.732C194.776 135.581 191.54 150.428 185.067 163.275C178.865 175.801 169.963 186.841 158.984 195.624C147.724 204.52 134.871 211.255 121.092 215.478C106.526 220.021 91.3323 222.301 76.0551 222.239H0V14.0569ZM46.463 179.907H70.6879C80.7703 179.999 90.8296 178.939 100.665 176.748C109.344 174.85 117.529 171.193 124.697 166.008C131.612 160.853 137.117 154.084 140.719 146.311C144.596 138.171 146.535 128.22 146.535 116.458C146.756 107.258 144.763 98.1367 140.719 89.8427C137.004 82.4804 131.614 76.0638 124.969 71.0937C118.045 66.0043 110.206 62.2528 101.866 60.037C92.7832 57.5561 83.3974 56.3177 73.9723 56.3567H46.463V179.907Z" fill="#FCFCFC"/>
</svg>
