<svg width="153" height="290" viewBox="0 0 153 290" fill="none" xmlns="http://www.w3.org/2000/svg">
<path d="M146.102 197.518C138.935 206.548 129.64 213.716 119.025 218.4C108.346 223.261 96.7252 225.783 84.9628 225.792C74.2388 225.862 63.5865 224.065 53.4961 220.485C44.0135 217.176 35.2977 212.031 27.8614 205.353C20.541 198.71 14.6981 190.642 10.7022 181.66C6.42168 171.919 4.28649 161.394 4.43768 150.78C4.28955 140.188 6.41912 129.685 10.6861 119.963C14.6821 110.981 20.5249 102.913 27.8454 96.2704C35.2849 89.5927 43.9994 84.4432 53.4801 81.1228C63.5726 77.5205 74.2293 75.6973 84.9628 75.7366C94.6224 75.6114 104.208 77.4112 113.145 81.028C121.383 84.4345 128.725 89.6473 134.614 96.2704C140.692 103.199 145.306 111.254 148.184 119.963C151.499 129.92 153.123 140.349 152.991 150.827V164.648H49.1703C50.6096 172.453 54.7142 179.537 60.802 184.724C66.9757 189.805 74.826 192.474 82.8639 192.227C89.4271 192.439 95.91 190.754 101.513 187.378C106.679 184.055 111.177 179.819 114.779 174.884L146.102 197.518ZM108.226 134.59C108.386 131.069 107.805 127.553 106.52 124.264C105.235 120.975 103.274 117.983 100.76 115.478C98.1763 112.856 95.0628 110.798 91.6212 109.437C88.1796 108.077 84.4865 107.444 80.7811 107.58C76.2912 107.487 71.8283 108.287 67.6593 109.933C64.094 111.361 60.8125 113.398 57.9662 115.951C55.3184 118.351 53.1879 121.252 51.7017 124.481C50.2201 127.675 49.3613 131.115 49.1703 134.621L108.226 134.59Z" fill="#FCFCFC"/>
</svg>
