<svg width="144" height="290" viewBox="0 0 144 290" fill="none" xmlns="http://www.w3.org/2000/svg">
<g clip-path="url(#clip0_1510_4114)">
<path d="M102.864 204.273H102.208C97.5173 211.683 90.5768 217.448 82.3727 220.747C67.8496 226.556 51.7575 227.335 36.7267 222.958C30.7197 221.224 25.1028 218.378 20.1763 214.571C15.4032 210.854 11.5331 206.132 8.8489 200.75C5.9545 194.791 4.52206 188.244 4.66723 181.638C4.43821 174.409 6.02321 167.236 9.2815 160.757C12.2925 155.161 16.5817 150.332 21.8105 146.651C27.3146 142.814 33.4122 139.881 39.867 137.964C46.7362 135.885 53.7665 134.363 60.8875 133.415C68.108 132.441 75.3763 131.851 82.661 131.646C89.9242 131.456 96.6373 131.362 102.8 131.362C102.956 127.817 102.274 124.286 100.809 121.046C99.3434 117.806 97.1348 114.946 94.3569 112.691C88.7105 108.073 81.5694 105.606 74.2336 105.742C67.2623 105.671 60.3745 107.241 54.1424 110.322C47.9725 113.448 42.4555 117.692 37.8803 122.832L13.9759 98.7127C22.3904 91.0282 32.3458 85.1684 43.1995 81.5116C54.322 77.6746 66.0227 75.72 77.8064 75.7305C90.9229 75.7305 101.711 77.3469 110.17 80.5797C118.099 83.4447 125.104 88.3538 130.454 94.7954C135.757 101.571 139.383 109.473 141.044 117.872C143.154 128.271 144.153 138.859 144.024 149.463V222.121H102.864V204.273ZM91.8255 159.588C88.4502 159.588 84.2258 159.735 79.1523 160.03C74.1994 160.295 69.2952 161.133 64.5405 162.526C60.1677 163.739 56.1016 165.843 52.6043 168.702C50.9556 170.12 49.656 171.889 48.8038 173.876C47.9516 175.863 47.5692 178.015 47.6856 180.169C47.5749 182.57 48.1613 184.953 49.3759 187.037C50.5905 189.122 52.383 190.821 54.5429 191.936C58.8904 194.423 63.824 195.741 68.8503 195.759C73.1437 195.765 77.4162 195.169 81.5395 193.99C85.4134 192.903 89.0861 191.213 92.4183 188.983C95.5735 186.865 98.1802 184.046 100.029 180.753C101.991 177.139 102.968 173.084 102.864 168.986V159.509L91.8255 159.588Z" fill="#FCFCFC"/>
</g>
<defs>
<clipPath id="clip0_1510_4114">
<rect width="144" height="290" fill="white"/>
</clipPath>
</defs>
</svg>
