<svg width="116" height="290" viewBox="0 0 116 290" fill="none" xmlns="http://www.w3.org/2000/svg">
<g clip-path="url(#clip0_1510_4116)">
<path d="M116.373 114.602H77.0077V162.241C76.9858 165.83 77.1838 169.417 77.6005 172.982C77.9066 175.925 78.8228 178.774 80.2922 181.353C81.782 183.799 84.0282 185.709 86.7009 186.803C90.3546 188.217 94.2663 188.868 98.1884 188.714C101.33 188.654 104.466 188.406 107.577 187.972C110.789 187.751 113.857 186.572 116.373 184.591V221.347C111.362 223.12 106.156 224.308 100.864 224.885C95.6133 225.466 90.3342 225.761 85.0506 225.77C78.0367 225.823 71.0423 225.033 64.2224 223.416C58.2191 222 52.5502 219.452 47.5278 215.914C42.7109 212.451 38.8542 207.851 36.3126 202.535C33.4558 196.254 32.0756 189.418 32.2752 182.538V114.618H3.62842V79.3158H32.2592V36.9844H77.0077V79.3158H116.373V114.602Z" fill="#FCFCFC"/>
</g>
<defs>
<clipPath id="clip0_1510_4116">
<rect width="116" height="290" fill="white"/>
</clipPath>
</defs>
</svg>
