<svg width="147" height="290" viewBox="0 0 147 290" fill="none" xmlns="http://www.w3.org/2000/svg">
<g clip-path="url(#clip0_1510_4118)">
<path d="M52.575 -0.0820312V98.7175H53.1678C54.3364 95.6915 56.0578 92.9022 58.2467 90.4882C60.753 87.6338 63.6675 85.1543 66.8984 83.1276C70.6039 80.8278 74.6157 79.0469 78.8186 77.8362C83.6646 76.418 88.6959 75.7102 93.7509 75.7354C105.094 75.7354 114.243 77.4518 121.196 80.8847C127.849 84.0394 133.475 88.9629 137.442 95.1004C141.505 101.664 144.196 108.962 145.357 116.566C146.789 125.415 147.486 134.363 147.44 143.323V222.126H102.691V152.232C102.691 148.125 102.531 143.86 102.242 139.454C101.99 135.271 101.082 131.152 99.5507 127.244C98.1533 123.645 95.7816 120.493 92.6934 118.13C89.6066 115.771 85.1792 114.592 79.4114 114.592C74.5427 114.407 69.7112 115.497 65.4084 117.751C61.9438 119.679 59.1007 122.531 57.2053 125.98C55.245 129.595 53.9793 133.537 53.4722 137.606C52.8651 142.087 52.5654 146.605 52.575 151.126V222.284H7.84229V-0.0820312H52.575Z" fill="#FCFCFC"/>
</g>
<defs>
<clipPath id="clip0_1510_4118">
<rect width="147" height="290" fill="white"/>
</clipPath>
</defs>
</svg>
