<svg width="162" height="290" viewBox="0 0 162 290" fill="none" xmlns="http://www.w3.org/2000/svg">
<g clip-path="url(#clip0_1510_4120)">
<path d="M130.089 64.9109C126.087 60.0512 120.754 56.4273 114.724 54.4702C108.852 52.3289 102.655 51.1859 96.3949 51.09C92.8792 51.1037 89.3758 51.501 85.9487 52.2746C82.4151 53.0368 79.0032 54.2697 75.8069 55.9391C72.7343 57.5194 70.0789 59.7857 68.0525 62.5574C66.001 65.5025 64.957 69.0165 65.0724 72.5874C64.9282 75.3903 65.5099 78.1834 66.7628 80.7035C68.0157 83.2236 69.8986 85.3879 72.2341 86.9927C77.7813 90.7089 83.8624 93.584 90.2746 95.5221C97.5271 97.8704 105.33 100.224 113.682 102.583C121.905 104.877 129.782 108.24 137.106 112.581C144.396 116.927 150.57 122.873 155.147 129.956C159.921 137.201 162.308 146.904 162.308 159.067C162.55 169.527 160.3 179.898 155.739 189.346C151.556 197.735 145.491 205.076 138.003 210.812C130.256 216.63 121.443 220.92 112.048 223.448C101.902 226.224 91.4154 227.606 80.8858 227.555C67.8935 227.678 54.9773 225.589 42.7061 221.379C30.4998 216.989 19.3334 210.184 9.89355 201.382L42.9945 165.511C47.7247 171.719 53.9237 176.692 61.0509 179.995C71.5974 185.097 83.6083 186.447 95.0491 183.818C98.7093 183.017 102.226 181.675 105.479 179.837C108.461 178.179 111.016 175.866 112.945 173.077C114.874 170.206 115.864 166.821 115.781 163.379C115.887 160.504 115.277 157.647 114.003 155.058C112.73 152.47 110.831 150.229 108.475 148.531C102.876 144.536 96.6892 141.409 90.1304 139.259C82.7604 136.711 74.803 134.163 66.258 131.614C57.9111 129.157 49.8997 125.704 42.4017 121.332C35.0817 117.054 28.816 111.227 24.0568 104.273C19.1862 97.207 16.7509 87.893 16.7509 76.3309C16.5249 66.1395 18.8295 56.0483 23.464 46.9358C27.788 38.6711 33.8967 31.441 41.3602 25.7543C49.0724 19.9386 57.8218 15.5989 67.1553 12.9602C76.9638 10.1283 87.1357 8.70781 97.3562 8.74282C109.08 8.71449 120.742 10.4019 131.963 13.7499C143.125 17.0988 153.407 22.8193 162.084 30.5087L130.089 64.9109Z" fill="#FCFCFC"/>
</g>
<defs>
<clipPath id="clip0_1510_4120">
<rect width="162" height="290" fill="white"/>
</clipPath>
</defs>
</svg>
