<svg width="168" height="290" viewBox="0 0 168 290" fill="none" xmlns="http://www.w3.org/2000/svg">
<path d="M10.1938 79.3104H51.3536V98.1384H51.9464C53.9914 95.3036 56.3386 92.693 58.9479 90.3513C62.0283 87.5598 65.4324 85.1369 69.0895 83.1329C73.1124 80.9212 77.3672 79.147 81.7788 77.8414C86.5206 76.4527 91.4441 75.7608 96.3906 75.788C106.402 75.6541 116.34 77.5018 125.614 81.2216C134.135 84.6983 141.812 89.9146 148.141 96.5273C154.498 103.281 159.403 111.233 162.56 119.904C166.043 129.424 167.774 139.48 167.671 149.599C167.713 159.338 166.155 169.02 163.057 178.268C160.148 187.049 155.701 195.26 149.919 202.529C144.319 209.564 137.262 215.342 129.219 219.478C120.633 223.791 111.104 225.961 101.469 225.796C92.5842 225.866 83.7537 224.418 75.3701 221.515C67.4076 218.751 60.4849 213.667 55.5192 206.936H54.9264V289.277H10.1938V79.3104ZM51.3536 150.768C51.3536 161.562 54.4832 170.286 60.7423 176.941C67.0014 183.596 75.8027 186.929 87.146 186.94C98.468 186.94 107.264 183.607 113.534 176.941C119.804 170.275 122.939 161.551 122.939 150.768C122.939 139.996 119.804 131.272 113.534 124.595C107.264 117.919 98.468 114.587 87.146 114.597C75.8027 114.597 67.0014 117.93 60.7423 124.595C54.4832 131.261 51.3536 139.985 51.3536 150.768Z" fill="#FCFCFC"/>
</svg>
