<svg width="143" height="290" viewBox="0 0 143 290" fill="none" xmlns="http://www.w3.org/2000/svg">
<path d="M101.679 204.273H101.07C96.3899 211.686 89.4535 217.452 81.2513 220.747C66.7283 226.555 50.6362 227.335 35.6055 222.958C29.5985 221.224 23.9816 218.378 19.0551 214.571C14.2821 210.854 10.4121 206.132 7.72787 200.75C4.83347 194.791 3.40096 188.244 3.54614 181.638C3.31711 174.409 4.90211 167.236 8.16039 160.757C11.1714 155.161 15.4606 150.332 20.6894 146.651C26.1934 142.814 32.2911 139.881 38.7458 137.964C45.615 135.885 52.6453 134.363 59.7663 133.415C66.9867 132.441 74.255 131.851 81.5397 131.646C88.7922 131.456 95.5053 131.361 101.679 131.361C101.827 127.812 101.135 124.278 99.6583 121.037C98.1818 117.797 95.961 114.94 93.1714 112.691C87.525 108.073 80.3839 105.606 73.0482 105.742C66.0633 105.654 59.1583 107.213 52.9089 110.291C46.7391 113.416 41.2221 117.66 36.647 122.8L12.7907 98.7126C21.2052 91.0281 31.1605 85.1684 42.0142 81.5116C53.1214 77.6798 64.8054 75.7253 76.573 75.7305C89.7001 75.7305 100.488 77.3469 108.937 80.5796C116.866 83.4447 123.87 88.3538 129.22 94.7954C134.517 101.574 138.143 109.475 139.811 117.872C141.92 128.271 142.919 138.859 142.791 149.463V222.121H101.679V204.273ZM90.6401 159.588C87.2648 159.588 83.0404 159.735 77.9669 160.03C73.014 160.295 68.1099 161.133 63.3551 162.526C58.9824 163.739 54.9162 165.843 51.4189 168.702C49.7703 170.12 48.4707 171.889 47.6185 173.876C46.7663 175.863 46.3839 178.015 46.5003 180.169C46.3896 182.57 46.9759 184.953 48.1905 187.037C49.4051 189.122 51.1976 190.821 53.3576 191.936C57.7051 194.423 62.6387 195.741 67.6649 195.759C71.9583 195.765 76.2307 195.169 80.3541 193.99C84.228 192.903 87.9007 191.213 91.2329 188.983C94.388 186.865 96.9947 184.046 98.8432 180.753C100.805 177.139 101.782 173.084 101.679 168.986V159.509L90.6401 159.588Z" fill="#FCFCFC"/>
</svg>
