<svg width="267" height="290" viewBox="0 0 267 290" fill="none" xmlns="http://www.w3.org/2000/svg">
<g clip-path="url(#clip0_1510_4125)">
<path d="M260.576 197.518C253.39 206.556 244.073 213.725 233.435 218.4C222.77 223.254 211.167 225.776 199.421 225.792C188.697 225.861 178.045 224.064 167.954 220.485C158.473 217.172 149.758 212.028 142.319 205.353C135.008 198.705 129.172 190.639 125.176 181.66C120.888 171.922 118.753 161.395 118.912 150.78C118.756 140.187 120.886 129.683 125.16 119.964C129.156 110.985 134.993 102.918 142.303 96.2706C149.745 89.5962 158.459 84.4472 167.938 81.1229C178.031 77.5222 188.687 75.6991 199.421 75.7367C209.086 75.6099 218.677 77.4097 227.619 81.0282C235.857 84.4347 243.199 89.6475 249.088 96.2706C255.166 103.199 259.78 111.254 262.658 119.964C265.965 129.922 267.589 140.349 267.465 150.828V164.648H163.628C165.079 172.453 169.188 179.535 175.276 184.724C181.45 189.805 189.3 192.474 197.338 192.227C203.901 192.439 210.384 190.754 215.987 187.378C221.15 184.051 225.647 179.816 229.253 174.884L260.576 197.518ZM222.7 134.59C222.86 131.069 222.279 127.553 220.994 124.264C219.709 120.975 217.748 117.984 215.234 115.478C212.65 112.857 209.536 110.799 206.095 109.439C202.653 108.078 198.96 107.445 195.255 107.58C190.765 107.484 186.301 108.285 182.133 109.934C178.596 111.369 175.343 113.406 172.52 115.952C169.872 118.351 167.742 121.252 166.256 124.481C164.776 127.676 163.913 131.115 163.708 134.622L222.7 134.59Z" fill="#FCFCFC"/>
<path d="M129.489 205.254C122.179 198.606 116.342 190.539 112.346 181.561C111.593 179.981 110.936 178.196 110.311 176.475C107.758 179.262 104.805 181.667 101.547 183.614C97.6649 185.85 93.2252 186.972 88.7301 186.852C77.3974 186.852 68.6015 183.519 62.3423 176.854C56.0832 170.188 52.9429 161.49 52.9216 150.76C52.9216 139.987 56.0565 131.263 62.3263 124.587C68.5961 117.911 77.3921 114.578 88.7141 114.589C93.1848 114.589 97.5867 115.674 101.531 117.748C104.985 119.466 107.993 121.941 110.327 124.982C110.936 123.276 111.593 121.586 112.33 119.959C116.326 110.98 122.162 102.914 129.473 96.2661C131.546 94.3975 133.728 92.6517 136.01 91.0379C130.074 86.0498 123.158 82.3233 115.695 80.0917C106.97 77.3287 97.877 75.8595 88.7141 75.7322C77.9919 75.6661 67.3411 77.4571 57.2474 81.0237C47.7686 84.3479 39.0548 89.4969 31.6127 96.1713C24.2974 102.815 18.4599 110.882 14.4695 119.864C10.1828 129.597 8.04734 140.118 8.20505 150.728C8.04604 161.343 10.1815 171.87 14.4695 181.608C18.4599 190.59 24.2974 198.657 31.6127 205.301C39.0516 211.976 47.7666 217.12 57.2474 220.433C67.3352 224.029 77.9874 225.841 88.7141 225.787C97.8783 225.687 106.976 224.244 115.711 221.507C123.173 219.281 130.09 215.56 136.026 210.577C133.749 208.922 131.567 207.145 129.489 205.254Z" fill="#FCFCFC"/>
</g>
<defs>
<clipPath id="clip0_1510_4125">
<rect width="267" height="290" fill="white"/>
</clipPath>
</defs>
</svg>
