<svg width="304" height="58" viewBox="0 0 304 58" fill="none" xmlns="http://www.w3.org/2000/svg">
<path d="M0.816406 3.3512H14.3161C17.4553 3.33635 20.5847 3.70371 23.6351 4.44519C26.4136 5.10128 29.0323 6.30789 31.3364 7.99366C33.5613 9.67091 35.352 11.8569 36.5584 14.3685C37.8476 16.9862 38.4922 20.1597 38.4922 23.889C38.4922 27.1947 37.8662 30.1078 36.6142 32.6284C35.4144 35.0861 33.6925 37.2522 31.5688 38.9754C29.3908 40.7209 26.9047 42.0423 24.2394 42.871C21.4219 43.7622 18.4829 44.2097 15.5279 44.1974H0.816406V3.3512ZM9.80381 35.8918H14.4897C16.4399 35.9098 18.3857 35.7018 20.2881 35.272C21.967 34.8996 23.5501 34.1819 24.9367 33.1646C26.2742 32.1532 27.3392 30.8252 28.0358 29.3C28.7858 27.7029 29.1608 25.7505 29.1608 23.4427C29.2037 21.6376 28.8182 19.848 28.0358 18.2207C27.3173 16.7762 26.2747 15.5172 24.9894 14.5421C23.65 13.5435 22.1337 12.8074 20.5205 12.3727C18.7636 11.8859 16.9481 11.643 15.125 11.6506H9.80381V35.8918Z" fill="#FCFCFC"/>
<path d="M66.7963 39.3494C65.41 41.121 63.6121 42.5274 61.5588 43.4464C59.4932 44.4003 57.2453 44.8951 54.9701 44.8968C52.8958 44.9106 50.8353 44.5581 48.8835 43.8555C47.0492 43.2063 45.3633 42.1969 43.9249 40.8866C42.5089 39.5833 41.3787 38.0004 40.6058 36.2379C39.7778 34.3268 39.3648 32.2618 39.394 30.1792C39.3654 28.101 39.7773 26.0403 40.6027 24.1328C41.3756 22.3704 42.5058 20.7875 43.9218 19.4842C45.3608 18.174 47.0465 17.1636 48.8804 16.5122C50.8326 15.8054 52.8939 15.4477 54.9701 15.4554C56.8386 15.4308 58.6928 15.7839 60.4214 16.4936C62.015 17.1619 63.4352 18.1847 64.5742 19.4842C65.7499 20.8436 66.6424 22.424 67.1992 24.1328C67.8403 26.0865 68.1544 28.1325 68.1289 30.1885V32.9002H48.0467C48.3251 34.4315 49.1191 35.8215 50.2967 36.8392C51.4908 37.836 53.0094 38.3598 54.5641 38.3112C55.8337 38.3529 57.0876 38.0222 58.1715 37.3598C59.1707 36.708 60.0408 35.8769 60.7375 34.9084L66.7963 39.3494ZM59.47 27.0026C59.5009 26.3118 59.3885 25.622 59.14 24.9767C58.8914 24.3313 58.5121 23.7444 58.0258 23.2527C57.526 22.7383 56.9238 22.3345 56.2581 22.0676C55.5923 21.8007 54.878 21.6765 54.1612 21.7032C53.2928 21.6849 52.4295 21.8419 51.6231 22.1649C50.9334 22.445 50.2987 22.8447 49.7481 23.3457C49.236 23.8165 48.8239 24.3857 48.5364 25.0192C48.2498 25.6458 48.0837 26.3208 48.0467 27.0088L59.47 27.0026Z" fill="#FCFCFC"/>
<path d="M88.0279 40.676H87.9009C86.9936 42.13 85.6511 43.261 84.0642 43.9083C81.255 45.048 78.1422 45.2009 75.2348 44.3422C74.0729 44.0019 72.9864 43.4434 72.0334 42.6966C71.1102 41.9672 70.3616 41.0407 69.8424 39.9849C69.2825 38.8156 69.0054 37.531 69.0335 36.2349C68.9892 34.8166 69.2958 33.4093 69.926 32.1379C70.5085 31.0401 71.3381 30.0926 72.3495 29.3704C73.4142 28.6176 74.5937 28.042 75.8422 27.6659C77.171 27.258 78.5308 26.9595 79.9083 26.7734C81.3049 26.5823 82.7108 26.4665 84.1199 26.4263C85.5249 26.3891 86.8234 26.3705 88.0155 26.3705C88.0456 25.6751 87.9137 24.9823 87.6303 24.3466C87.3468 23.7109 86.9196 23.1498 86.3823 22.7074C85.2901 21.8011 83.9088 21.3172 82.4898 21.3437C81.1413 21.3299 79.809 21.638 78.6035 22.2425C77.4101 22.8557 76.3429 23.6884 75.458 24.697L70.8341 19.9646C72.4617 18.4569 74.3874 17.3072 76.4869 16.5897C78.6383 15.8369 80.9016 15.4534 83.1809 15.4555C85.7181 15.4555 87.8048 15.7726 89.4411 16.4069C90.9748 16.969 92.3297 17.9322 93.3646 19.1961C94.3904 20.5254 95.0918 22.0758 95.4131 23.7239C95.8212 25.7641 96.0144 27.8415 95.9895 29.9221V44.1779H88.0279V40.676ZM85.8926 31.9086C85.2398 31.9086 84.4226 31.9375 83.4412 31.9954C82.4832 32.0474 81.5346 32.2118 80.6149 32.485C79.769 32.7232 78.9825 33.136 78.306 33.6968C77.9871 33.975 77.7357 34.3222 77.5709 34.7121C77.4061 35.1019 77.3321 35.5241 77.3546 35.9467C77.3332 36.4179 77.4466 36.8854 77.6816 37.2943C77.9165 37.7033 78.2632 38.0367 78.681 38.2556C79.522 38.7435 80.4763 39.0021 81.4485 39.0055C82.279 39.0067 83.1054 38.8898 83.903 38.6584C84.6523 38.4453 85.3628 38.1136 86.0073 37.676C86.6176 37.2604 87.1218 36.7074 87.4794 36.0614C87.8589 35.3522 88.0479 34.5567 88.0279 33.7526V31.8931L85.8926 31.9086Z" fill="#FCFCFC"/>
<path d="M118.496 23.0792H110.881V32.4261C110.877 33.1302 110.915 33.8339 110.996 34.5335C111.055 35.1108 111.232 35.6699 111.517 36.176C111.805 36.6558 112.239 37.0306 112.756 37.2452C113.463 37.5226 114.22 37.6503 114.978 37.6202C115.586 37.6083 116.193 37.5597 116.794 37.4745C117.416 37.4312 118.009 37.1999 118.496 36.8113V44.0229C117.526 44.3709 116.52 44.6039 115.496 44.7171C114.48 44.831 113.459 44.889 112.437 44.8907C111.08 44.9011 109.727 44.7461 108.408 44.4289C107.247 44.1509 106.151 43.6511 105.179 42.9568C104.247 42.2776 103.501 41.3749 103.01 40.3319C102.457 39.0996 102.19 37.7584 102.229 36.4084V23.0823H96.6875V16.1558H102.226V7.85016H110.881V16.1558H118.496V23.0792Z" fill="#FCFCFC"/>
<path d="M128.592 0.579712V19.9646H128.707C128.933 19.3709 129.266 18.8236 129.689 18.35C130.174 17.7899 130.738 17.3034 131.363 16.9058C132.08 16.4546 132.856 16.1051 133.668 15.8676C134.606 15.5893 135.579 15.4505 136.557 15.4554C138.751 15.4554 140.521 15.7922 141.866 16.4657C143.152 17.0847 144.241 18.0507 145.008 19.2549C145.794 20.5427 146.315 21.9747 146.539 23.4666C146.816 25.2027 146.951 26.9585 146.942 28.7165V44.1779H138.286V30.4644C138.286 29.6586 138.255 28.8218 138.199 27.9572C138.151 27.1366 137.975 26.3284 137.679 25.5616C137.408 24.8555 136.95 24.237 136.352 23.7734C135.755 23.3106 134.899 23.0792 133.783 23.0792C132.841 23.043 131.907 23.2569 131.075 23.699C130.404 24.0774 129.854 24.637 129.488 25.3137C129.109 26.023 128.864 26.7963 128.766 27.5946C128.648 28.474 128.59 29.3603 128.592 30.2474V44.2089H119.939V0.579712H128.592Z" fill="#FCFCFC"/>
<path d="M172.02 13.3295C171.246 12.376 170.214 11.665 169.048 11.281C167.912 10.8609 166.713 10.6366 165.503 10.6178C164.823 10.6205 164.145 10.6984 163.482 10.8502C162.798 10.9998 162.138 11.2416 161.52 11.5692C160.926 11.8793 160.412 12.3239 160.02 12.8677C159.623 13.4456 159.422 14.135 159.444 14.8357C159.416 15.3856 159.528 15.9336 159.771 16.4281C160.013 16.9225 160.377 17.3472 160.829 17.662C161.902 18.3912 163.078 18.9553 164.319 19.3356C165.722 19.7963 167.231 20.2581 168.847 20.7209C170.437 21.1711 171.961 21.8308 173.377 22.6826C174.787 23.5352 175.982 24.7018 176.867 26.0916C177.791 27.5131 178.252 29.4169 178.252 31.8032C178.299 33.8557 177.864 35.8905 176.982 37.7442C176.172 39.3902 174.999 40.8305 173.551 41.9559C172.052 43.0974 170.348 43.9392 168.53 44.4352C166.568 44.9798 164.539 45.2509 162.503 45.241C159.99 45.2651 157.491 44.8552 155.117 44.0292C152.756 43.1679 150.596 41.8327 148.771 40.1057L155.173 33.0677C156.088 34.2857 157.287 35.2614 158.666 35.9096C160.706 36.9105 163.029 37.1754 165.242 36.6595C165.95 36.5023 166.63 36.239 167.26 35.8786C167.837 35.5531 168.331 35.0993 168.704 34.5522C169.077 33.9889 169.269 33.3248 169.252 32.6493C169.273 32.0852 169.155 31.5247 168.909 31.0168C168.662 30.5089 168.295 30.0692 167.839 29.7361C166.756 28.9523 165.56 28.3388 164.291 27.917C162.865 27.417 161.326 26.917 159.673 26.417C158.059 25.9348 156.509 25.2573 155.059 24.3995C153.643 23.5601 152.431 22.417 151.51 21.0525C150.568 19.6661 150.097 17.8387 150.097 15.5701C150.053 13.5706 150.499 11.5906 151.395 9.80271C152.232 8.18113 153.413 6.76255 154.857 5.64682C156.349 4.50573 158.041 3.65428 159.847 3.13654C161.744 2.58091 163.712 2.30221 165.689 2.30908C167.956 2.30352 170.212 2.6346 172.383 3.2915C174.542 3.94856 176.53 5.07095 178.209 6.57965L172.02 13.3295Z" fill="#FCFCFC"/>
<path d="M180.164 16.1558H188.126V19.8499H188.24C188.636 19.2937 189.09 18.7815 189.595 18.3221C190.19 17.7744 190.849 17.299 191.556 16.9058C192.334 16.4719 193.157 16.1237 194.011 15.8676C194.928 15.5951 195.88 15.4594 196.837 15.4647C198.774 15.4384 200.696 15.8009 202.49 16.5308C204.138 17.2129 205.623 18.2364 206.847 19.5338C208.077 20.8589 209.026 22.4191 209.636 24.1205C210.31 25.9883 210.645 27.9614 210.625 29.9468C210.633 31.8577 210.332 33.7572 209.733 35.5717C209.17 37.2946 208.31 38.9057 207.191 40.3319C206.108 41.7122 204.743 42.8458 203.187 43.6573C201.526 44.5036 199.683 44.9293 197.82 44.8969C196.101 44.9107 194.393 44.6265 192.771 44.057C191.231 43.5146 189.892 42.5171 188.931 41.1966H188.817V57.3522H180.164V16.1558ZM188.126 30.1762C188.126 32.2939 188.731 34.0056 189.942 35.3114C191.152 36.6171 192.855 37.271 195.049 37.2731C197.239 37.2731 198.94 36.6192 200.153 35.3114C201.366 34.0035 201.972 32.2918 201.972 30.1762C201.972 28.0626 201.366 26.3508 200.153 25.0409C198.94 23.7311 197.239 23.0771 195.049 23.0792C192.855 23.0792 191.152 23.7331 189.942 25.0409C188.731 26.3488 188.126 28.0605 188.126 30.1762Z" fill="#FCFCFC"/>
<path d="M230.357 40.676H230.239C229.334 42.1305 227.992 43.2618 226.406 43.9083C223.597 45.048 220.484 45.2009 217.577 44.3422C216.415 44.0019 215.328 43.4434 214.375 42.6966C213.452 41.9672 212.703 41.0407 212.184 39.9849C211.624 38.8156 211.347 37.531 211.375 36.2349C211.331 34.8166 211.638 33.4093 212.268 32.1379C212.85 31.0401 213.68 30.0926 214.691 29.3704C215.756 28.6176 216.935 28.042 218.184 27.6659C219.513 27.258 220.873 26.9595 222.25 26.7734C223.647 26.5823 225.053 26.4665 226.462 26.4263C227.865 26.3891 229.163 26.3705 230.357 26.3705C230.386 25.6741 230.252 24.9806 229.966 24.3449C229.681 23.7091 229.251 23.1485 228.712 22.7073C227.619 21.8011 226.238 21.3172 224.819 21.3437C223.468 21.3265 222.132 21.6325 220.924 22.2363C219.73 22.8495 218.663 23.6822 217.778 24.6908L213.163 19.9646C214.791 18.4569 216.717 17.3072 218.816 16.5897C220.965 15.8379 223.225 15.4544 225.501 15.4554C228.04 15.4554 230.127 15.7726 231.761 16.4069C233.295 16.969 234.65 17.9322 235.685 19.1961C236.709 20.5261 237.411 22.0762 237.733 23.7239C238.141 25.7641 238.334 27.8415 238.31 29.9221V44.1779H230.357V40.676ZM228.222 31.9086C227.569 31.9086 226.752 31.9375 225.771 31.9954C224.813 32.0474 223.864 32.2118 222.944 32.485C222.098 32.7232 221.312 33.136 220.635 33.6968C220.316 33.975 220.065 34.3222 219.9 34.712C219.735 35.1019 219.661 35.5241 219.684 35.9467C219.663 36.4179 219.776 36.8854 220.011 37.2943C220.246 37.7033 220.593 38.0367 221.01 38.2556C221.851 38.7435 222.806 39.0021 223.778 39.0055C224.608 39.0067 225.435 38.8898 226.232 38.6584C226.982 38.4453 227.692 38.1136 228.337 37.676C228.947 37.2604 229.451 36.7074 229.809 36.0614C230.188 35.3522 230.377 34.5567 230.357 33.7526V31.8931L228.222 31.9086Z" fill="#FCFCFC"/>
<path d="M288.753 39.3495C287.364 41.1227 285.561 42.5292 283.504 43.4465C281.441 44.3989 279.196 44.8936 276.924 44.8969C274.85 44.9104 272.789 44.5579 270.838 43.8556C269.004 43.2056 267.318 42.1963 265.879 40.8866C264.465 39.5824 263.336 37.9996 262.563 36.238C261.734 34.3273 261.32 32.2619 261.351 30.1792C261.321 28.1009 261.733 26.0399 262.56 24.1329C263.333 22.3712 264.462 20.7885 265.876 19.4842C267.315 18.1747 269.001 17.1644 270.834 16.5122C272.787 15.8057 274.848 15.448 276.924 15.4554C278.794 15.4305 280.649 15.7836 282.379 16.4936C283.972 17.162 285.392 18.1847 286.531 19.4842C287.707 20.8436 288.6 22.424 289.156 24.1329C289.796 26.0869 290.11 28.1327 290.086 30.1885V32.9002H270.001C270.281 34.4314 271.076 35.821 272.254 36.8392C273.448 37.836 274.967 38.3598 276.521 38.3113C277.791 38.353 279.045 38.0222 280.129 37.3598C281.127 36.7072 281.997 35.8762 282.695 34.9085L288.753 39.3495ZM281.427 27.0026C281.458 26.3118 281.346 25.622 281.097 24.9767C280.849 24.3314 280.469 23.7444 279.983 23.2527C279.483 22.7385 278.881 22.3348 278.215 22.0679C277.549 21.801 276.835 21.6767 276.118 21.7032C275.25 21.6843 274.387 21.8414 273.58 22.1649C272.896 22.4466 272.267 22.8463 271.721 23.3457C271.209 23.8165 270.797 24.3857 270.509 25.0192C270.223 25.6462 270.056 26.3208 270.016 27.0088L281.427 27.0026Z" fill="#FCFCFC"/>
<path d="M263.397 40.8681C261.983 39.5639 260.854 37.9811 260.081 36.2195C259.936 35.9096 259.809 35.5594 259.688 35.2216C259.194 35.7684 258.623 36.2403 257.992 36.6223C257.241 37.0612 256.383 37.2812 255.513 37.2577C253.321 37.2577 251.62 36.6038 250.409 35.2959C249.198 33.9881 248.591 32.2815 248.587 30.1762C248.587 28.0626 249.193 26.3509 250.406 25.041C251.619 23.7311 253.32 23.0772 255.51 23.0793C256.375 23.0793 257.226 23.2921 257.989 23.6991C258.657 24.0363 259.239 24.5218 259.691 25.1185C259.809 24.7838 259.936 24.4522 260.078 24.133C260.851 22.3713 261.98 20.7886 263.394 19.4843C263.795 19.1177 264.217 18.7752 264.659 18.4585C263.511 17.4798 262.173 16.7487 260.729 16.3108C259.041 15.7687 257.283 15.4805 255.51 15.4555C253.436 15.4425 251.376 15.7939 249.423 16.4937C247.59 17.1459 245.904 18.1562 244.465 19.4657C243.05 20.7692 241.921 22.3521 241.149 24.1144C240.32 26.024 239.907 28.0883 239.937 30.17C239.906 32.2527 240.319 34.3181 241.149 36.2288C241.921 37.991 243.05 39.5739 244.465 40.8774C245.904 42.187 247.59 43.1964 249.423 43.8464C251.375 44.5519 253.435 44.9075 255.51 44.8969C257.283 44.8772 259.043 44.5941 260.732 44.0571C262.176 43.6203 263.513 42.8902 264.662 41.9125C264.221 41.5879 263.799 41.2393 263.397 40.8681Z" fill="#FCFCFC"/>
<path d="M298.387 44.9372C301.296 44.9372 303.655 42.5784 303.655 39.6687C303.655 36.759 301.296 34.4002 298.387 34.4002C295.477 34.4002 293.118 36.759 293.118 39.6687C293.118 42.5784 295.477 44.9372 298.387 44.9372Z" fill="#FCFCFC"/>
</svg>
