<svg width="18" height="18" viewBox="0 0 18 18" fill="none" xmlns="http://www.w3.org/2000/svg">
<path d="M12.5101 2H5.7651C3.70134 2 2 3.73154 2 5.83557V12.4195C2 14.5336 3.69127 16.255 5.7651 16.255H12.5101C14.5738 16.255 16.2752 14.5235 16.2752 12.4195V5.83557C16.2752 3.73154 14.5738 2 12.5101 2ZM14.9966 12.3289C14.9966 13.7886 13.8289 14.9866 12.3893 14.9866H5.8859C4.45637 14.9866 3.27852 13.7886 3.27852 12.3289V5.93624C3.27852 4.47651 4.44631 3.27852 5.8859 3.27852H12.3893C13.8188 3.27852 14.9966 4.47651 14.9966 5.93624V12.3289Z" fill="#FCFCFC"/>
<path d="M9.13663 5.47339C7.1534 5.47339 5.55273 7.11433 5.55273 9.13782C5.55273 11.1613 7.16347 12.8023 9.13663 12.8023C11.1098 12.8023 12.7205 11.1613 12.7205 9.13782C12.7205 7.11433 11.1198 5.47339 9.13663 5.47339ZM9.13663 11.5036C7.8581 11.5036 6.82119 10.4465 6.82119 9.13782C6.82119 7.82909 7.8581 6.77205 9.13663 6.77205C10.4151 6.77205 11.4521 7.82909 11.4521 9.13782C11.4521 10.4365 10.4151 11.5036 9.13663 11.5036Z" fill="#FCFCFC"/>
<path d="M12.9099 6.09632C13.3547 6.09632 13.7153 5.72673 13.7153 5.27082C13.7153 4.8149 13.3547 4.44531 12.9099 4.44531C12.4651 4.44531 12.1045 4.8149 12.1045 5.27082C12.1045 5.72673 12.4651 6.09632 12.9099 6.09632Z" fill="#FCFCFC"/>
</svg>
