<svg width="28" height="28" viewBox="0 0 28 28" fill="none" xmlns="http://www.w3.org/2000/svg">
<mask id="path-1-outside-1_1826_3806" maskUnits="userSpaceOnUse" x="0.0410156" y="0.0751953" width="28" height="28" fill="black">
<rect fill="white" x="0.0410156" y="0.0751953" width="28" height="28"/>
<path fill-rule="evenodd" clip-rule="evenodd" d="M14.0413 16.1707L22.9457 25.075L25.0409 22.9798L16.1365 14.0755L25.041 5.171L22.9458 3.07578L14.0413 11.9802L5.13628 3.0752L3.04106 5.17042L11.9461 14.0755L3.0412 22.9804L5.13642 25.0756L14.0413 16.1707Z"/>
</mask>
<path fill-rule="evenodd" clip-rule="evenodd" d="M14.0413 16.1707L22.9457 25.075L25.0409 22.9798L16.1365 14.0755L25.041 5.171L22.9458 3.07578L14.0413 11.9802L5.13628 3.0752L3.04106 5.17042L11.9461 14.0755L3.0412 22.9804L5.13642 25.0756L14.0413 16.1707Z" fill="white"/>
<path d="M22.9457 25.075L21.885 26.1357L22.9457 27.1963L24.0063 26.1357L22.9457 25.075ZM14.0413 16.1707L15.102 15.11L14.0413 14.0494L12.9807 15.11L14.0413 16.1707ZM25.0409 22.9798L26.1015 24.0405L27.1622 22.9798L26.1015 21.9191L25.0409 22.9798ZM16.1365 14.0755L15.0759 13.0148L14.0152 14.0755L15.0759 15.1361L16.1365 14.0755ZM25.041 5.171L26.1017 6.23166L27.1623 5.171L26.1017 4.11034L25.041 5.171ZM22.9458 3.07578L24.0065 2.01512L22.9458 0.954455L21.8851 2.01512L22.9458 3.07578ZM14.0413 11.9802L12.9807 13.0409L14.0413 14.1016L15.102 13.0409L14.0413 11.9802ZM5.13628 3.0752L6.19694 2.01454L5.13628 0.953875L4.07562 2.01454L5.13628 3.0752ZM3.04106 5.17042L1.9804 4.10976L0.919738 5.17042L1.9804 6.23108L3.04106 5.17042ZM11.9461 14.0755L13.0068 15.1361L14.0674 14.0755L13.0068 13.0148L11.9461 14.0755ZM3.0412 22.9804L1.98054 21.9197L0.919876 22.9804L1.98054 24.041L3.0412 22.9804ZM5.13642 25.0756L4.07576 26.1363L5.13642 27.1969L6.19708 26.1363L5.13642 25.0756ZM24.0063 24.0144L15.102 15.11L12.9807 17.2313L21.885 26.1357L24.0063 24.0144ZM23.9802 21.9191L21.885 24.0144L24.0063 26.1357L26.1015 24.0405L23.9802 21.9191ZM15.0759 15.1361L23.9802 24.0405L26.1015 21.9191L17.1972 13.0148L15.0759 15.1361ZM23.9804 4.11034L15.0759 13.0148L17.1972 15.1361L26.1017 6.23166L23.9804 4.11034ZM21.8851 4.13644L23.9804 6.23166L26.1017 4.11034L24.0065 2.01512L21.8851 4.13644ZM15.102 13.0409L24.0065 4.13644L21.8851 2.01512L12.9807 10.9196L15.102 13.0409ZM4.07562 4.13586L12.9807 13.0409L15.102 10.9196L6.19694 2.01454L4.07562 4.13586ZM4.10172 6.23108L6.19694 4.13586L4.07562 2.01454L1.9804 4.10976L4.10172 6.23108ZM13.0068 13.0148L4.10172 4.10976L1.9804 6.23108L10.8854 15.1361L13.0068 13.0148ZM4.10186 24.041L13.0068 15.1361L10.8854 13.0148L1.98054 21.9197L4.10186 24.041ZM6.19708 24.0149L4.10186 21.9197L1.98054 24.041L4.07576 26.1363L6.19708 24.0149ZM12.9807 15.11L4.07576 24.0149L6.19708 26.1363L15.102 17.2313L12.9807 15.11Z" fill="#0E0C10" mask="url(#path-1-outside-1_1826_3806)"/>
</svg>
