<svg width="2925" height="1382" viewBox="0 0 2925 1382" fill="none" xmlns="http://www.w3.org/2000/svg">
<path fill-rule="evenodd" clip-rule="evenodd" d="M2924.92 4.82715C2587.71 4.82705 2140.01 98.7393 1801.96 303.039C1628.73 407.73 1459.06 567.379 1283.85 732.23C1273.95 741.553 1264.02 750.892 1254.08 760.238C1068.36 934.787 875.949 1111.95 666.422 1232.56C475.358 1342.54 339.908 1377.57 236.612 1381.28C154.29 1384.23 92.4363 1367.27 39.5077 1352.76C26.0577 1349.07 13.184 1345.54 0.697266 1342.53L1.63321 1338.64C14.2765 1341.69 27.2557 1345.24 40.7751 1348.95C93.6631 1363.45 154.818 1380.21 236.468 1377.28C338.933 1373.6 473.748 1338.85 664.426 1229.09C873.487 1108.75 1065.58 931.915 1251.34 757.324C1261.32 747.941 1271.29 738.565 1281.23 729.204C1456.32 564.46 1626.28 404.535 1799.89 299.616C2138.69 94.8647 2587.14 0.827053 2924.92 0.827148V4.82715Z" fill="url(#paint0_linear_1018:3750)"/>
<defs>
<linearGradient id="paint0_linear_1018:3750" x1="2882.65" y1="71.3629" x2="329.469" y2="1477.1" gradientUnits="userSpaceOnUse">
<stop stop-color="#FA00FF"/>
<stop offset="0.24552" stop-color="#8F00FF"/>
<stop offset="0.591953" stop-color="#2400FF"/>
<stop offset="0.64948" stop-color="#2400FF" stop-opacity="0.37"/>
<stop offset="1" stop-opacity="0"/>
</linearGradient>
</defs>
</svg>
