<svg width="18" height="18" viewBox="0 0 18 18" fill="none" xmlns="http://www.w3.org/2000/svg">
<path opacity="0.7" d="M16.8823 5.90576L15.1106 6.88022L13.3389 8.56337V14.3392H15.8193C16.4065 14.3392 16.8823 13.8633 16.8823 13.2762V5.90576Z" fill="#FCFCFC"/>
<path opacity="0.7" d="M2.00098 5.90576L3.28159 6.5117L5.54445 8.56337V14.3392H3.06402C2.47687 14.3392 2.00098 13.8633 2.00098 13.2762V5.90576Z" fill="#FCFCFC"/>
<path d="M13.3375 4.13501L9.43967 7.05838L5.54185 4.13501L5.1875 6.19023L5.54185 8.56435L9.43967 11.4877L13.3375 8.56435L13.6918 6.19023L13.3375 4.13501Z" fill="#FCFCFC"/>
<path d="M2 4.52299V5.90565L5.54347 8.56326V4.13391L4.43649 3.30438C4.17286 3.10666 3.85253 3 3.52299 3C2.68176 3 2 3.68176 2 4.52299Z" fill="#FCFCFC"/>
<path d="M16.8823 4.52299V5.90565L13.3389 8.56326V4.13391L14.4458 3.30438C14.7095 3.10666 15.0298 3 15.3594 3C16.2006 3 16.8823 3.68176 16.8823 4.52299Z" fill="#FCFCFC"/>
</svg>
