<svg width="22" height="32" viewBox="0 0 22 32" fill="none" xmlns="http://www.w3.org/2000/svg">
<path d="M16.2717 10.7807C19.1083 10.7807 21.4018 8.48281 21.4018 5.64063C21.4018 2.79846 19.1083 0.440063 16.2717 0.440063H5.95118C3.11454 0.440063 0.821096 2.79846 0.821096 5.64063C0.821096 8.48281 3.11454 10.7807 5.95118 10.7807C3.11454 10.7807 0.760742 13.0787 0.760742 15.9208C0.760742 18.8235 3.11454 21.1214 5.95118 21.1214C3.11454 21.1214 0.760742 23.4193 0.760742 26.2615C0.760742 29.1037 3.11454 31.4016 5.95118 31.4016C8.78781 31.4016 11.0813 29.1037 11.0813 26.2615V10.7807H16.2717ZM16.2717 10.7807C13.3747 10.7807 11.0813 13.0787 11.0813 15.9208C11.0813 18.8235 13.3747 21.1214 16.2717 21.1214C19.1083 21.1214 21.4018 18.8235 21.4018 15.9208C21.4018 13.0787 19.1083 10.7807 16.2717 10.7807Z" fill="#FCFCFC"/>
</svg>
