<svg width="109" height="104" viewBox="0 0 109 104" fill="none" xmlns="http://www.w3.org/2000/svg">
<path d="M36.6341 83.3069C36.6341 82.884 36.1969 82.4611 35.5411 82.4611C34.8853 82.4611 34.448 82.884 34.448 83.3069C34.448 83.7298 34.8853 84.1527 35.5411 83.9412C36.1969 83.9412 36.6341 83.7298 36.6341 83.3069ZM29.8573 82.2497C29.8573 82.6726 30.2945 83.3069 30.9504 83.3069C31.3876 83.5183 32.0434 83.3069 32.262 82.884C32.262 82.4611 32.0434 82.0382 31.3876 81.8268C30.7318 81.6153 30.0759 81.8268 29.8573 82.2497ZM39.6946 82.0382C39.0388 82.0382 38.6015 82.4611 38.6015 83.0954C38.6015 83.5183 39.2574 83.7298 39.9132 83.5183C40.569 83.3069 41.0062 83.0954 40.7876 82.6726C40.7876 82.2497 40.1318 81.8268 39.6946 82.0382ZM53.9039 0.844238C23.7364 0.844238 0.564209 23.2572 0.564209 52.4363C0.564209 75.9064 15.648 95.9934 37.5085 103.182C40.3504 103.605 41.2248 101.914 41.2248 100.645C41.2248 99.1651 41.2248 91.976 41.2248 87.5357C41.2248 87.5357 25.9224 90.7074 22.6434 81.1925C22.6434 81.1925 20.2387 75.0606 16.741 73.5805C16.741 73.5805 11.7131 70.1974 16.9596 70.1974C16.9596 70.1974 22.4247 70.6203 25.4852 75.6949C30.2945 83.9412 38.1643 81.6153 41.4434 80.1352C41.8806 76.7522 43.1923 74.4263 44.9411 72.9462C32.6992 71.6775 20.2387 69.986 20.2387 49.6875C20.2387 43.7671 21.9875 41.0183 25.4852 37.2124C24.8294 35.7323 23.0806 30.2348 26.141 22.8343C30.5131 21.5656 41.2248 28.5432 41.2248 28.5432C45.5969 27.2746 50.1876 26.8517 54.7783 26.8517C59.5877 26.8517 64.1784 27.2746 68.5505 28.5432C68.5505 28.5432 79.0435 21.3542 83.6343 22.8343C86.6947 30.2348 84.7273 35.7323 84.2901 37.2124C87.7878 41.0183 89.9738 43.7671 89.9738 49.6875C89.9738 69.986 77.0761 71.6775 64.8342 72.9462C66.8016 74.6377 68.5505 77.8094 68.5505 82.884C68.5505 89.8616 68.3319 98.7422 68.3319 100.434C68.3319 101.914 69.4249 103.605 72.2668 102.971C94.1273 95.9934 108.992 75.9064 108.992 52.4363C108.992 23.2572 84.2901 0.844238 53.9039 0.844238ZM21.7689 73.792C21.3317 74.0034 21.5503 74.6377 21.7689 75.0606C22.2061 75.2721 22.6434 75.4835 23.0806 75.2721C23.2992 75.0606 23.2992 74.4263 22.862 74.0034C22.4247 73.792 21.9875 73.5805 21.7689 73.792ZM19.3643 72.1004C19.1457 72.5233 19.3643 72.7348 19.8015 72.9462C20.2387 73.1576 20.6759 73.1576 20.8945 72.7348C20.8945 72.5233 20.6759 72.3119 20.2387 72.1004C19.8015 71.889 19.5829 71.889 19.3643 72.1004ZM26.3596 79.7124C26.141 79.9238 26.141 80.5581 26.7969 80.981C27.2341 81.4039 27.8899 81.6153 28.1085 81.1925C28.3271 80.981 28.3271 80.3467 27.8899 79.9238C27.4527 79.5009 26.7969 79.2895 26.3596 79.7124ZM23.955 76.5407C23.5178 76.7522 23.5178 77.3865 23.955 77.8094C24.3922 78.2323 24.8294 78.4437 25.2666 78.2323C25.4852 78.0208 25.4852 77.3865 25.2666 76.9636C24.8294 76.5407 24.3922 76.3293 23.955 76.5407Z" fill="#FCFCFC"/>
</svg>
