<svg width="18" height="18" viewBox="0 0 18 18" fill="none" xmlns="http://www.w3.org/2000/svg">
<path d="M5.98869 15.0999C11.9713 15.0999 15.2444 10.0594 15.2444 5.68972C15.2444 5.54802 15.2413 5.40318 15.2351 5.26148C15.8718 4.79332 16.4213 4.21345 16.8577 3.54911C16.2647 3.81734 15.6351 3.99253 14.9904 4.06867C15.6693 3.65498 16.1775 3.0051 16.421 2.23948C15.7824 2.62426 15.084 2.89569 14.3558 3.04214C13.8651 2.51208 13.2164 2.16112 12.5099 2.04352C11.8033 1.92592 11.0784 2.04822 10.4471 2.39152C9.81578 2.73483 9.31329 3.28 9.01731 3.94277C8.72133 4.60554 8.64834 5.34898 8.80963 6.05815C7.51654 5.99217 6.25151 5.65066 5.09657 5.05574C3.94163 4.46082 2.92255 3.62578 2.1054 2.60475C1.69008 3.33276 1.56299 4.19423 1.74996 5.01409C1.93693 5.83394 2.42393 6.55065 3.11199 7.01856C2.59544 7.00188 2.0902 6.86049 1.63803 6.60605V6.64699C1.63756 7.41098 1.89735 8.15155 2.37322 8.74283C2.84909 9.3341 3.51168 9.73959 4.24836 9.89035C3.76986 10.0235 3.26765 10.0428 2.78059 9.94703C2.98847 10.6041 3.39292 11.1787 3.9375 11.5908C4.48208 12.0029 5.13961 12.2319 5.81834 12.2457C4.66606 13.1659 3.24266 13.6651 1.7774 13.6627C1.51755 13.6623 1.25795 13.6461 1 13.6142C2.48855 14.5851 4.22013 15.1008 5.98869 15.0999Z" fill="#FCFCFC"/>
</svg>
