<svg width="18" height="18" viewBox="0 0 18 18" fill="none" xmlns="http://www.w3.org/2000/svg">
<g clip-path="url(#clip0)">
<path d="M7.57796 8.75513C7.1191 8.75513 6.75684 9.15764 6.75684 9.6487C6.75684 10.1398 7.12715 10.5423 7.57796 10.5423C8.03682 10.5423 8.39908 10.1398 8.39908 9.6487C8.40713 9.15764 8.03682 8.75513 7.57796 8.75513ZM10.5163 8.75513C10.0574 8.75513 9.69516 9.15764 9.69516 9.6487C9.69516 10.1398 10.0655 10.5423 10.5163 10.5423C10.9751 10.5423 11.3374 10.1398 11.3374 9.6487C11.3374 9.15764 10.9751 8.75513 10.5163 8.75513Z" fill="#FCFCFC"/>
<path d="M14.4376 2H3.65029C2.74062 2 2 2.74062 2 3.65834V14.5422C2 15.4599 2.74062 16.2006 3.65029 16.2006H12.7792L12.3526 14.7113L13.383 15.6693L14.3571 16.5709L16.0879 18.1004V3.65834C16.0879 2.74062 15.3472 2 14.4376 2ZM11.3302 12.5136C11.3302 12.5136 11.0404 12.1674 10.7989 11.8615C11.8535 11.5636 12.256 10.9035 12.256 10.9035C11.9259 11.1209 11.6119 11.2738 11.3302 11.3785C10.9277 11.5475 10.5413 11.6602 10.1629 11.7247C9.39009 11.8696 8.68167 11.8293 8.07791 11.7166C7.61905 11.628 7.22459 11.4992 6.89453 11.3704C6.70937 11.298 6.50812 11.2094 6.30686 11.0967C6.28271 11.0806 6.25856 11.0726 6.23441 11.0565C6.21831 11.0484 6.21026 11.0404 6.20221 11.0323C6.0573 10.9518 5.9768 10.8955 5.9768 10.8955C5.9768 10.8955 6.36321 11.5395 7.38559 11.8454C7.14408 12.1513 6.84623 12.5136 6.84623 12.5136C5.06713 12.4572 4.39091 11.2899 4.39091 11.2899C4.39091 8.69777 5.55014 6.59667 5.55014 6.59667C6.70937 5.72725 7.81225 5.7514 7.81225 5.7514L7.89275 5.848C6.44372 6.26661 5.77555 6.90258 5.77555 6.90258C5.77555 6.90258 5.95265 6.80597 6.25051 6.66912C7.11188 6.29076 7.79615 6.18611 8.07791 6.16196C8.12621 6.15391 8.16646 6.14586 8.21476 6.14586C8.70582 6.08145 9.26129 6.06535 9.8409 6.12976C10.6057 6.21831 11.4268 6.44371 12.264 6.90258C12.264 6.90258 11.628 6.29881 10.2595 5.8802L10.3722 5.7514C10.3722 5.7514 11.4751 5.72725 12.6343 6.59667C12.6343 6.59667 13.7936 8.69777 13.7936 11.2899C13.7936 11.2899 13.1093 12.4572 11.3302 12.5136Z" fill="#FCFCFC"/>
</g>
<defs>
<clipPath id="clip0">
<rect width="18" height="18" fill="white"/>
</clipPath>
</defs>
</svg>
