<svg width="16" height="15" viewBox="0 0 16 15" fill="none" xmlns="http://www.w3.org/2000/svg">
<path d="M8.01934 0.491211C3.98145 0.491211 0.710938 3.76355 0.710938 7.79962C0.710938 11.0293 2.8048 13.7681 5.70806 14.7335C6.07348 14.8023 6.20747 14.5763 6.20747 14.3821C6.20747 14.2085 6.20138 13.7487 6.19833 13.1396C4.16538 13.5806 3.73662 12.1591 3.73662 12.1591C3.40408 11.3156 2.92356 11.0902 2.92356 11.0902C2.26154 10.6371 2.97472 10.6462 2.97472 10.6462C3.7086 10.6974 4.09412 11.399 4.09412 11.399C4.74579 12.5166 5.8049 12.1938 6.22269 12.0068C6.28847 11.5342 6.47666 11.212 6.68556 11.0293C5.06248 10.8466 3.35658 10.2181 3.35658 7.41775C3.35658 6.61992 3.63978 5.96825 4.10874 5.45666C4.02652 5.27213 3.77986 4.52911 4.17269 3.52237C4.17269 3.52237 4.78476 3.32626 6.1825 4.27149C6.76717 4.10887 7.38838 4.02848 8.0096 4.02483C8.63081 4.02848 9.25203 4.10887 9.8367 4.27149C11.2253 3.32626 11.8374 3.52237 11.8374 3.52237C12.2302 4.52911 11.9835 5.27213 11.9105 5.45666C12.3764 5.96825 12.6596 6.61992 12.6596 7.41775C12.6596 10.2254 10.9512 10.8436 9.32511 11.0232C9.58091 11.2425 9.81843 11.6907 9.81843 12.3753C9.81843 13.3534 9.80929 14.139 9.80929 14.3766C9.80929 14.5684 9.93719 14.7968 10.3117 14.7237C13.2357 13.7651 15.3277 11.0245 15.3277 7.79962C15.3277 3.76355 12.0554 0.491211 8.01934 0.491211Z" fill="white"/>
</svg>
